<?xml version="1.0" encoding="UTF-8"?>
<svg version="1.1" xmlns="http://www.w3.org/2000/svg" width="1254" height="1254">
<path d="M0 0 C8.83521124 5.07784559 14.59940462 12.7597431 17.4375 22.5 C17.68359566 25.42471886 17.68359566 25.42471886 17.67800903 28.53646851 C17.68213303 30.31581284 17.68213303 30.31581284 17.68634033 32.13110352 C17.67914978 33.41863525 17.67195923 34.70616699 17.66455078 36.03271484 C17.66398616 37.41289258 17.66430422 38.79307091 17.66543579 40.17324829 C17.66600833 43.90836407 17.65427008 47.64335073 17.64028788 51.37843657 C17.62776401 55.28618937 17.62660871 59.19394531 17.62423706 63.10171509 C17.61802715 70.49639771 17.60162297 77.89102102 17.58153808 85.28567755 C17.55916384 93.70644619 17.54818182 102.1272177 17.53814721 110.54800868 C17.5172563 127.8653734 17.48208985 145.18268042 17.4375 162.5 C17.99269851 162.49886084 18.54789701 162.49772168 19.11991972 162.496548 C52.03794495 162.42938891 84.95595299 162.37792776 117.87403139 162.34680401 C121.82804904 162.34305197 125.78206655 162.33916899 129.73608398 162.33520508 C130.52324549 162.33441815 131.310407 162.33363122 132.12142188 162.33282044 C144.86088704 162.31977259 157.60031151 162.29612216 170.33975255 162.26854161 C183.41516695 162.24047014 196.49056008 162.22382006 209.56600338 162.21773452 C217.63186845 162.21362169 225.69761852 162.20063959 233.76344819 162.1762506 C239.95217051 162.15849267 246.14080547 162.15663878 252.32954979 162.16067696 C254.86555438 162.15985191 257.40156334 162.15388838 259.93754196 162.14238358 C263.40277028 162.12743476 266.8675085 162.13105558 270.33274841 162.13923645 C271.33374319 162.13049793 272.33473797 162.1217594 273.36606592 162.11275607 C283.71777171 162.17870794 292.63988244 165.19932109 300.3515625 172.25 C309.97539116 182.40621067 310.00508031 193.63525867 309.89160156 206.89306641 C309.89047182 208.74673437 309.89110943 210.60040412 309.89337158 212.45407104 C309.89451469 217.46174237 309.87107078 222.46902695 309.84307575 227.47660875 C309.81799474 232.71895393 309.81571482 237.96130892 309.81097412 243.20370483 C309.798564 253.11992774 309.765769 263.0359733 309.72557616 272.95211828 C309.68079727 284.24594337 309.65885603 295.53977712 309.63879442 306.83366895 C309.59703462 330.05587744 309.52672082 353.27792876 309.4375 376.5 C310.14465086 376.49723462 310.85180172 376.49446924 311.58038139 376.49162006 C328.8167075 376.42525884 346.05300099 376.37567019 363.2894268 376.34456348 C371.62496413 376.32911923 379.96041598 376.30807661 388.29589844 376.27368164 C395.56427766 376.24370429 402.83259495 376.22440726 410.10103428 376.21773452 C413.94675627 376.21383632 417.79230114 376.20472646 421.63796616 376.18280983 C425.26425033 376.16231264 428.89028593 376.15619264 432.51662254 376.16067696 C434.46850648 376.15946959 436.4203639 376.14339714 438.37217712 376.1267395 C450.13803019 376.16774493 458.81575226 378.2581377 467.4375 386.5 C474.32750735 393.88644892 476.91107014 402.08086966 476.8117218 412.07653809 C476.81569621 412.89050474 476.81967061 413.70447139 476.82376546 414.54310369 C476.83331603 417.24441352 476.82161462 419.94519005 476.80981445 422.64648438 C476.81224481 424.59377741 476.81596649 426.54106919 476.82087708 428.48835754 C476.83025626 433.75898904 476.82088559 439.02943386 476.80754495 444.30005074 C476.796199 449.82515605 476.80034039 455.35025259 476.80229187 460.87536621 C476.80317385 470.15245601 476.79211449 479.42947261 476.77368164 488.70654297 C476.75251553 499.42033209 476.74900475 510.13401401 476.7552436 520.84781981 C476.76094549 531.16933827 476.75528186 541.49081911 476.74407005 551.81233215 C476.73943501 556.19807127 476.73854548 560.5837873 476.7406559 564.9695282 C476.7425446 570.13732458 476.73439017 575.30501241 476.7185955 580.47278404 C476.71436631 582.36537413 476.71349288 584.25797526 476.71628571 586.15056801 C476.71952819 588.74165032 476.71037404 591.3324125 476.69819641 593.92346191 C476.70197573 594.66540597 476.70575506 595.40735003 476.70964891 596.17177725 C476.62103284 606.89233773 473.91359641 613.6284743 466.65234375 621.4140625 C460.21495263 627.62673976 452.75294407 630.63740118 443.8125 630.9375 C433.14113695 630.4669278 425.53297104 625.92297776 418.1875 618.375 C410.91415147 609.08170183 410.86942802 597.71139886 410.98339844 586.45019531 C410.98462645 584.84676528 410.98408526 583.24333309 410.98193741 581.63990402 C410.9810415 577.38066853 411.00407245 573.12189076 411.03237915 568.86276245 C411.05531143 564.85299378 411.05623983 560.84333138 411.05908203 556.83349609 C411.07999646 545.13893776 411.13584157 533.44446294 411.1875 521.75 C411.27 495.5975 411.3525 469.445 411.4375 442.5 C321.3475 442.5 231.2575 442.5 138.4375 442.5 C138.59576505 495.31905157 138.59576505 495.31905157 138.79785156 548.13793945 C138.81591797 558.37145996 138.81591797 558.37145996 138.8192749 563.16764832 C138.82298997 566.50560723 138.83793337 569.84330969 138.85980225 573.18119812 C138.88738828 577.44872235 138.89543728 581.71587761 138.8897891 585.98348272 C138.89096888 587.54352621 138.89881228 589.10358357 138.91436052 590.66355002 C139.02076519 601.86631972 138.21154923 612.487586 130.14453125 621.00390625 C122.98578361 627.27804892 116.03283798 629.85134326 106.625 629.8125 C105.85607422 629.82861328 105.08714844 629.84472656 104.29492188 629.86132812 C95.01080531 629.86916282 89.11202174 626.86833035 82.41796875 620.54296875 C75.46134526 613.36680684 74.12638488 605.5966669 74.18353271 596.00575256 C74.18041273 595.18855678 74.17729275 594.37136101 74.17407823 593.52940172 C74.16614797 590.8112742 74.17240238 588.09337303 74.17871094 585.37524414 C74.17599885 583.41824717 74.17243669 581.46125122 74.16809082 579.5042572 C74.15898994 574.20261727 74.16250176 568.90105537 74.16884899 563.59941411 C74.1739216 558.0436045 74.16921396 552.48780146 74.16607666 546.93199158 C74.16244039 537.60186568 74.16722691 528.27177147 74.17675781 518.94165039 C74.1876385 508.1659704 74.1841182 497.39036613 74.173105 486.61468798 C74.16401867 477.35246035 74.16275354 468.09025546 74.16798234 458.8280248 C74.17109504 453.30074825 74.17153069 447.77350724 74.16490936 442.24623299 C74.15911707 437.04808968 74.16316726 431.85004362 74.17469788 426.65191078 C74.17733453 424.74803071 74.17659643 422.84414241 74.17217255 420.94026566 C74.16667618 418.33381159 74.17360054 415.72766571 74.18353271 413.12123108 C74.17907127 412.37471395 74.17460983 411.62819682 74.17001319 410.85905796 C74.24870521 400.15154589 76.91198194 393.3100941 84.2578125 385.5859375 C93.30704311 376.97634562 102.67960485 375.91314039 114.79150391 376.04589844 C116.23449345 376.04712616 117.67748539 376.04658575 119.12047386 376.04443741 C122.95718775 376.04354066 126.79339458 376.06658927 130.62998962 376.09487915 C134.24056456 376.11779363 137.85102111 376.11873886 141.46166992 376.12158203 C151.99534614 376.14250518 162.52892963 376.19835029 173.0625 376.25 C196.61625 376.3325 220.17 376.415 244.4375 376.5 C244.4375 327.66 244.4375 278.82 244.4375 228.5 C73.1675 228.5 -98.1025 228.5 -274.5625 228.5 C-274.5625 277.34 -274.5625 326.18 -274.5625 376.5 C-227.62222234 376.34174042 -227.62222234 376.34174042 -180.68212891 376.13964844 C-171.58666992 376.12158203 -171.58666992 376.12158203 -167.32357788 376.1182251 C-164.35722799 376.11451068 -161.3911668 376.09957013 -158.42489624 376.07769775 C-154.63207401 376.05010444 -150.83966693 376.04206395 -147.04675364 376.0477109 C-145.01028847 376.04597823 -142.97386838 376.02460529 -140.9375248 376.002285 C-129.91828235 376.0519351 -120.61303938 378.6661418 -112.5625 386.5 C-106.18946718 394.21803186 -103.26091402 400.70434712 -103.27488708 410.79602051 C-103.26823927 411.61614671 -103.26159146 412.43627292 -103.25474221 413.28125143 C-103.23510297 416.02151907 -103.22967778 418.76162302 -103.22436523 421.50195312 C-103.21346594 423.47024968 -103.20179379 425.43854208 -103.18940735 427.40682983 C-103.15892827 432.75021063 -103.14188929 438.09354839 -103.12919116 443.43699837 C-103.12109766 446.77963535 -103.11091662 450.12226008 -103.10017586 453.46488953 C-103.06745996 463.93537762 -103.04356094 474.40583579 -103.031362 484.87636805 C-103.01712213 496.93985627 -102.97329545 509.00275798 -102.90386051 521.06605196 C-102.85197267 530.40475146 -102.82718037 539.74328476 -102.82253987 549.08212614 C-102.81915108 554.65286472 -102.80443945 560.22301002 -102.76125908 565.79359436 C-102.72130086 571.04041487 -102.71519286 576.28623325 -102.73415947 581.53316116 C-102.73541829 583.44948517 -102.7248931 585.36586237 -102.70114517 587.28203964 C-102.54793717 600.40241107 -103.7987873 610.89702071 -112.88544369 621.11118317 C-119.91227231 628.01093915 -127.33245628 630.07754973 -137 630 C-137.83893799 629.99355469 -138.67787598 629.98710938 -139.54223633 629.98046875 C-145.97722448 629.78978385 -150.60293163 628.82131168 -155.5625 624.5 C-156.27664063 623.89542969 -156.99078125 623.29085937 -157.7265625 622.66796875 C-163.67634698 617.18334924 -167.23457733 611.50030746 -168.5625 603.5 C-168.65043044 601.26355053 -168.684499 599.0247215 -168.68275452 596.7865448 C-168.68361053 596.12640884 -168.68446655 595.46627289 -168.68534851 594.78613281 C-168.68699899 592.57508616 -168.68148775 590.36411586 -168.67602539 588.15307617 C-168.67571896 586.54048572 -168.67585271 584.92789514 -168.67639065 583.31530476 C-168.67661625 578.99988747 -168.67082359 574.68449796 -168.66378021 570.36908722 C-168.65808207 566.31852634 -168.65781692 562.26797219 -168.65710449 558.21740723 C-168.65185876 546.37410114 -168.63789759 534.53080022 -168.625 522.6875 C-168.604375 496.225625 -168.58375 469.76375 -168.5625 442.5 C-258.6525 442.5 -348.7425 442.5 -441.5625 442.5 C-441.44378674 494.70585708 -441.44378674 494.70585708 -441.29223633 546.91162109 C-441.27868652 557.02270508 -441.27868652 557.02270508 -441.27616882 561.76040649 C-441.27338077 565.06002896 -441.26216592 568.35950573 -441.24577332 571.65908813 C-441.22510261 575.87604626 -441.21904372 580.09279439 -441.22328317 584.30979848 C-441.22239747 585.8523429 -441.21650396 587.39489512 -441.20485461 588.93739581 C-441.11400979 601.55886698 -442.18913663 611.45575627 -450.9375 621.125 C-458.4119919 627.88763552 -466.85987917 631.23687778 -476.9921875 630.83984375 C-486.36903999 629.60004714 -493.36102066 625.53920775 -499.5625 618.5 C-507.42636802 607.86844795 -507.56631042 598.30132726 -507.45239258 585.57983398 C-507.4602551 583.59739846 -507.47110642 581.6149729 -507.48469543 579.63256836 C-507.51217682 574.28319583 -507.49593904 568.93479875 -507.46984696 563.58545184 C-507.44828972 557.96833541 -507.4619241 552.35128297 -507.47013855 546.73414612 C-507.47828085 537.30511166 -507.4577109 527.8764658 -507.42016602 518.44750977 C-507.37722265 507.56875275 -507.38078188 496.69075715 -507.4090336 485.81196922 C-507.43512505 475.31630979 -507.427222 464.82093152 -507.40433311 454.32527351 C-507.39526675 449.87215753 -507.39813565 445.41929018 -507.41083717 440.96618462 C-507.42434088 435.71677032 -507.40797944 430.46825143 -507.36919975 425.21897125 C-507.35972247 423.30024304 -507.36026823 421.38143317 -507.37194061 419.46271706 C-507.45238718 404.65495527 -505.11237526 394.50667704 -494.39453125 383.53515625 C-485.38239681 377.05884999 -477.19826005 375.77999925 -466.27856445 375.93237305 C-464.87794547 375.93378672 -463.47732279 375.93298531 -462.07670593 375.93016052 C-458.30854999 375.92873738 -454.54120462 375.95794555 -450.77323556 375.99303031 C-446.82284012 376.02448001 -442.87242209 376.0272391 -438.92192078 376.03315735 C-431.45642375 376.04864153 -423.99129679 376.08959559 -416.52596205 376.1399048 C-408.02047991 376.19596823 -399.51497924 376.2233273 -391.00935805 376.24838197 C-373.52685868 376.30051702 -356.04471858 376.38835247 -338.5625 376.5 C-338.56526538 375.55154552 -338.56803076 374.60309103 -338.57087994 373.6258955 C-338.63754906 350.5225409 -338.68681072 327.4191988 -338.71793652 304.31576824 C-338.73338972 293.14301314 -338.75444967 281.97032167 -338.78881836 270.79760742 C-338.81876807 261.0567722 -338.83808624 251.31598309 -338.84476548 241.5751031 C-338.8486683 236.41983475 -338.85780822 231.26469827 -338.87969017 226.10947227 C-338.90014335 221.25121702 -338.90631601 216.39314721 -338.90182304 211.53485298 C-338.90264431 209.75758733 -338.90855709 207.9803151 -338.92011642 206.20308685 C-339.00673103 192.19188085 -338.55138453 181.3530251 -328.328125 170.890625 C-321.70838433 165.16847629 -314.56004065 162.3728061 -305.82427502 162.37695217 C-304.89470334 162.37496112 -303.96513167 162.37297007 -303.00739115 162.37091869 C-301.99474501 162.37383153 -300.98209887 162.37674437 -299.93876648 162.37974548 C-298.85643653 162.37889106 -297.77410658 162.37803663 -296.65897876 162.37715632 C-293.02613511 162.37550697 -289.39333746 162.38101402 -285.76049805 162.38647461 C-283.1588084 162.38675662 -280.55711868 162.38659847 -277.95542908 162.3860321 C-272.35098989 162.38550791 -266.74656234 162.38864383 -261.14212608 162.39426994 C-253.03906568 162.40239904 -244.93601091 162.40500161 -236.83294687 162.40625793 C-223.68607272 162.40844623 -210.53920477 162.41510031 -197.39233398 162.42456055 C-184.62182649 162.4337404 -171.85132068 162.44081843 -159.08081055 162.44506836 C-158.29355733 162.44533108 -157.50630412 162.44559381 -156.69519474 162.44586449 C-152.74575312 162.44716953 -148.79631147 162.44843324 -144.84686983 162.44967639 C-112.0854087 162.4600421 -79.32395518 162.47765439 -46.5625 162.5 C-46.56710896 161.78254168 -46.57171793 161.06508335 -46.57646656 160.32588387 C-46.68706309 142.8392406 -46.7697134 125.35268658 -46.82156086 107.86577034 C-46.84730272 99.40908341 -46.88237591 90.95263046 -46.93969727 82.49609375 C-46.98965585 75.12223805 -47.02182021 67.74855188 -47.03294247 60.37453163 C-47.0394403 56.47278272 -47.05462685 52.57151864 -47.09115028 48.66992569 C-47.12530747 44.99099825 -47.13551384 41.31275131 -47.12803841 37.63368034 C-47.13005124 35.65311334 -47.15684262 33.67261898 -47.18460083 31.69224548 C-47.12404972 21.11948907 -43.99884103 13.05564332 -36.6796875 5.328125 C-26.19648513 -3.72379143 -12.59977553 -5.74007296 0 0 Z " fill="#3580FC" transform="translate(641.5625,471.5)"/>
<path d="M0 0 C7.49775543 5.99820435 11.03909725 13.18416985 15 21.75 C15.57361546 22.9690201 16.14834231 24.18751779 16.72412109 25.40551758 C17.88654155 27.86771886 19.04352913 30.33234986 20.19580078 32.79931641 C22.41105185 37.52754935 24.67467395 42.23191552 26.9375 46.9375 C30.08792145 53.51445133 33.21729734 60.10117891 36.33566284 66.69337463 C38.06019833 70.33880849 39.78647502 73.98341708 41.51263428 77.62808228 C42.374488 79.44937907 43.23537951 81.27113152 44.09527588 83.09335327 C45.31123263 85.67009383 46.53033381 88.24532613 47.75 90.8203125 C48.11519745 91.59644394 48.4803949 92.37257538 48.85665894 93.17222595 C53.06316802 102.17512099 53.06316802 102.17512099 60.8125 108.25 C64.01751127 109.14165104 64.01751127 109.14165104 67.46484375 109.5234375 C68.10479279 109.61239792 68.74474182 109.70135834 69.40408325 109.79301453 C70.79045321 109.98396417 72.17780459 110.16789459 73.56594849 110.3454895 C75.79855935 110.63121453 78.02804797 110.93502462 80.25756836 111.24389648 C82.63166745 111.57276005 85.00584879 111.90063094 87.3808136 112.22319031 C96.56295619 113.47261482 105.71852289 114.88886071 114.875 116.3125 C115.69816711 116.44039917 116.52133423 116.56829834 117.3694458 116.70007324 C118.18677185 116.82708618 119.0040979 116.95409912 119.84619141 117.08496094 C120.6533963 117.21039276 121.4606012 117.33582458 122.29226685 117.46505737 C123.88661211 117.71291056 125.48091224 117.96105436 127.07516479 118.20950317 C131.87506575 118.9558117 136.67795807 119.67579247 141.484375 120.37890625 C143.69791782 120.71092984 145.91145958 121.04296047 148.125 121.375 C149.5627478 121.5762146 149.5627478 121.5762146 151.02954102 121.78149414 C159.89398653 123.13572894 168.47219132 125.62149547 174.8125 132.25 C180.98163764 141.17710506 183.07220286 148.32450023 181.8125 159.25 C179.20725842 167.04711588 175.0315575 172.97242029 168.8125 178.25 C167.58268484 179.31174932 166.35354792 180.37428462 165.125 181.4375 C164.46113281 182.00855469 163.79726563 182.57960938 163.11328125 183.16796875 C159.73704314 186.2232063 156.55406715 189.4634357 153.3762207 192.72338867 C150.7317582 195.4145208 148.02538389 197.95497971 145.15625 200.40625 C139.58724042 205.22354917 134.48030529 210.51197543 129.3125 215.75 C123.50726873 221.63411179 117.72850649 227.47987 111.43896484 232.85498047 C109.50398614 234.51461246 107.67308842 236.25594999 105.875 238.0625 C105.30910156 238.62582031 104.74320313 239.18914062 104.16015625 239.76953125 C100.18730285 244.13391223 101.57865323 250.73860826 101.8125 256.25 C102.32827238 261.48610438 103.0846619 266.67525491 103.875 271.875 C104.09513852 273.36720816 104.31485366 274.85947884 104.53417969 276.35180664 C106.97669976 292.82088121 109.65602404 309.25562729 112.359375 325.68359375 C112.49147873 326.49246536 112.62358246 327.30133698 112.75968933 328.13471985 C113.42418658 332.22067773 113.42418658 332.22067773 114.33770752 336.25550842 C116.36477923 344.77076005 116.06785079 355.56263049 111.48046875 363.10546875 C104.8507905 371.62934079 97.41591564 375.93975083 86.8203125 377.765625 C76.47844846 378.53933054 68.64567955 373.97318959 59.8125 369.25 C58.40702698 368.51673797 57.00077913 367.78495911 55.59375 367.0546875 C52.53103395 365.45749797 49.47849586 363.84231475 46.4296875 362.21875 C39.42335842 358.49930876 32.36538455 354.88008666 25.3125 351.25 C15.65543319 346.27893864 6.00866819 341.29230038 -3.56835938 336.16796875 C-9.81314309 332.84765801 -14.01397335 330.76680433 -21.1875 331.25 C-23.82250291 332.27203369 -26.15878373 333.31309655 -28.640625 334.6171875 C-29.33339035 334.96713272 -30.0261557 335.31707794 -30.73991394 335.67762756 C-32.97959068 336.8133117 -35.20841094 337.96869341 -37.4375 339.125 C-38.99430511 339.91981457 -40.55168202 340.71351013 -42.10961914 341.50610352 C-46.47903678 343.7347034 -50.83575099 345.98712433 -55.1875 348.25 C-56.13802246 348.74387207 -57.08854492 349.23774414 -58.06787109 349.74658203 C-60.93746113 351.24368167 -63.80218998 352.74928033 -66.65893555 354.27075195 C-75.30875806 358.87551897 -84.03391351 363.33490807 -92.75 367.8125 C-93.94700027 368.42760941 -93.94700027 368.42760941 -95.16818237 369.05514526 C-116.76747867 380.15349553 -116.76747867 380.15349553 -130.1875 376.4140625 C-138.21587888 372.67584859 -145.35300488 366.27793837 -148.56640625 357.89453125 C-151.15796297 346.86004133 -148.64161614 335.16054601 -146.70556641 324.20166016 C-145.66368156 318.26556789 -144.68064981 312.31940301 -143.6875 306.375 C-143.4709375 305.08456787 -143.254375 303.79413574 -143.03125 302.46459961 C-141.36745991 292.49257288 -139.86796515 282.50665413 -138.49609375 272.49072266 C-138.01134958 268.97095844 -137.50492238 265.45442461 -137 261.9375 C-136.84144531 260.82761719 -136.68289063 259.71773438 -136.51953125 258.57421875 C-136.40996094 257.80722656 -136.30039062 257.04023438 -136.1875 256.25 C-135.5275 256.25 -134.8675 256.25 -134.1875 256.25 C-134.60666009 244.47160146 -138.76609157 239.12759054 -147.1875 231.25 C-148.38973318 230.20129877 -149.59809891 229.15958634 -150.8125 228.125 C-155.42942617 224.16502775 -159.66047768 219.83138227 -163.91259766 215.48779297 C-166.83690423 212.52012628 -169.80362318 209.6794299 -172.96875 206.96875 C-179.11903772 201.65983112 -184.71015031 195.77006633 -190.41015625 189.98828125 C-194.9675697 185.39106506 -199.55029544 180.91704348 -204.48925781 176.72949219 C-211.48746462 170.63272203 -215.30084899 163.73702832 -216.5703125 154.44921875 C-216.91869573 146.23898736 -214.51508534 139.8098364 -210.0625 133 C-198.98834063 122.40732582 -185.23985575 121.60516458 -170.72320557 120.03009033 C-166.04648623 119.51125616 -161.44859527 118.80036954 -156.8203125 117.9375 C-149.35568059 116.5802653 -141.86813053 115.42391328 -134.36328125 114.3125 C-133.2378743 114.14459961 -132.11246735 113.97669922 -130.95295715 113.80371094 C-126.27717884 113.10641184 -121.60131319 112.41026208 -116.9230957 111.72949219 C-113.46420305 111.22480798 -110.00743754 110.70725105 -106.55078125 110.1875 C-105.49764236 110.03740479 -104.44450348 109.88730957 -103.35945129 109.73266602 C-94.36084552 108.53132054 -94.36084552 108.53132054 -87.53466797 103.02368164 C-87.09010254 102.1083667 -86.64553711 101.19305176 -86.1875 100.25 C-85.62820801 99.11876709 -85.06891602 97.98753418 -84.49267578 96.82202148 C-83.86999863 95.50633071 -83.25020553 94.18927237 -82.6328125 92.87109375 C-82.2950882 92.15526123 -81.95736389 91.43942871 -81.60940552 90.7019043 C-80.50781679 88.36499326 -79.41010459 86.02628461 -78.3125 83.6875 C-77.54410461 82.05534492 -76.77554827 80.4232656 -76.00683594 78.79125977 C-71.97974233 70.23416134 -67.97873933 61.66530958 -64.00830078 53.08178711 C-61.93509965 48.60188108 -59.85051164 44.12730939 -57.765625 39.65283203 C-56.67558423 37.30243163 -55.59150753 34.95010132 -54.515625 32.59326172 C-53.38705827 30.12140366 -52.24909115 27.65430824 -51.10058594 25.19165039 C-50.03277915 22.90163434 -48.97760325 20.60566208 -47.93847656 18.30249023 C-43.62941709 9.15246734 -37.64089173 -0.53336424 -27.703125 -4.19921875 C-17.76818522 -6.37441519 -8.78834756 -4.82497513 0 0 Z " fill="#FDC83D" transform="translate(644.1875,91.75)"/>
<path d="M0 0 C0.66 0 1.32 0 2 0 C2.06058594 0.98742187 2.12117188 1.97484375 2.18359375 2.9921875 C2.26738281 4.27351563 2.35117187 5.55484375 2.4375 6.875 C2.51871094 8.15117187 2.59992188 9.42734375 2.68359375 10.7421875 C2.79206027 13.88300152 2.79206027 13.88300152 4 16 C3.34 16 2.68 16 2 16 C1.67 16.66 1.34 17.32 1 18 C-0.2062252 14.38132441 -0.10816918 11.07493749 -0.0625 7.3125 C-0.05798828 6.61060547 -0.05347656 5.90871094 -0.04882812 5.18554688 C-0.03706927 3.45699462 -0.01913454 1.72848635 0 0 Z " fill="#FDCD4A" transform="translate(495,432)"/>
<path d="M0 0 C0.33 0 0.66 0 1 0 C1.66 6.6 2.32 13.2 3 20 C0.70986347 16.5647952 0.82157027 15.014669 1 11 C0.34 11 -0.32 11 -1 11 C-0.67 7.37 -0.34 3.74 0 0 Z " fill="#FED876" transform="translate(744,339)"/>
<path d="M0 0 C2.71486934 3.97610786 2.22440753 8.13901977 2.125 12.75 C2.11597656 13.54277344 2.10695313 14.33554687 2.09765625 15.15234375 C2.07417012 17.10169281 2.03830137 19.05088575 2 21 C1.67 21 1.34 21 1 21 C0.93941406 19.96359375 0.87882813 18.9271875 0.81640625 17.859375 C0.73196629 16.48957127 0.64732003 15.11978025 0.5625 13.75 C0.52318359 13.06808594 0.48386719 12.38617188 0.44335938 11.68359375 C0.26993455 8.93547735 0.07985797 6.31525631 -0.59765625 3.640625 C-1 2 -1 2 0 0 Z " fill="#FDD368" transform="translate(757,426)"/>
<path d="M0 0 C0.66 1.32 1.32 2.64 2 4 C0.35 5.65 -1.3 7.3 -3 9 C-2.01 6.03 -1.02 3.06 0 0 Z " fill="#FDCE53" transform="translate(571,164)"/>
</svg>
