<?xml version="1.0" encoding="UTF-8"?>
<svg version="1.1" xmlns="http://www.w3.org/2000/svg" width="1254" height="1254">
<path d="M0 0 C413.82 0 827.64 0 1254 0 C1254 413.82 1254 827.64 1254 1254 C840.18 1254 426.36 1254 0 1254 C0 840.18 0 426.36 0 0 Z " fill="#E7ECFC" fill-opacity="1.0" transform="translate(0,0)"/>
<path d="M0 0 C413.82 0 827.64 0 1254 0 C1254 413.82 1254 827.64 1254 1254 C840.18 1254 426.36 1254 0 1254 C0 840.18 0 426.36 0 0 Z M330 135 C328.60587891 135.55880859 328.60587891 135.55880859 327.18359375 136.12890625 C307.8629472 144.80656753 294.29013226 162.61181415 286.90185547 181.86108398 C283.27471199 192.8512089 283.54374303 203.41995474 283.75 214.875 C283.77011194 216.834617 283.78835434 218.79425411 283.8046875 220.75390625 C283.84827371 225.50311089 283.91703702 230.25132673 284 235 C283.28384521 234.99333817 282.56769043 234.98667633 281.82983398 234.97981262 C275.00657927 234.91914151 268.18336602 234.87374564 261.35990906 234.84456348 C257.85375249 234.82905515 254.34782288 234.808097 250.84179688 234.77368164 C223.35548263 234.51110393 199.44909573 236.56012918 177.6015625 255.02734375 C175.99051445 256.63487423 174.49650999 258.28683708 173 260 C172.2059375 260.79148437 171.411875 261.58296875 170.59375 262.3984375 C151.98674439 281.06148831 144.82994019 304.68290786 144.86577892 330.65485668 C144.86342669 331.81770863 144.86107446 332.98056058 144.85865095 334.17865047 C144.85314596 337.40282265 144.85208705 340.62696063 144.85292836 343.85113626 C144.8527583 347.36040475 144.84684585 350.86966443 144.8416875 354.37892848 C144.8323756 361.33773093 144.82844183 368.29652701 144.82616853 375.25533491 C144.82320274 383.591647 144.81450307 391.92795068 144.80575425 400.26425834 C144.78492322 420.4139196 144.77444178 440.56358231 144.76562465 460.71325183 C144.76141583 470.24944731 144.75619413 479.78564215 144.75094012 489.3218371 C144.73305022 521.97789884 144.71805549 554.63396076 144.71061993 587.29002666 C144.71014517 589.33970864 144.70966928 591.38939062 144.70919226 593.4390726 C144.70895589 594.45551118 144.70871951 595.47194976 144.70847597 596.5191895 C144.7072748 601.66879886 144.70605934 606.81840822 144.70483398 611.96801758 C144.70459383 612.98996548 144.70435368 614.01191338 144.70410626 615.0648294 C144.69621651 648.18533987 144.67279122 681.3058145 144.64027804 714.42630933 C144.60595083 749.45882888 144.58626607 784.49132745 144.58297569 819.52386409 C144.58255816 823.37259186 144.5820786 827.22131962 144.58155251 831.07004738 C144.58142931 832.01768387 144.58130612 832.96532037 144.5811792 833.94167312 C144.57885069 849.16777163 144.5632102 864.39382839 144.54271066 879.61991205 C144.52241641 894.93702877 144.51699234 910.25409555 144.52648129 925.57122322 C144.53168238 934.66067801 144.5258849 943.74996606 144.50394662 952.83939673 C144.4903746 958.9246875 144.49157161 965.00986431 144.50434858 971.09515638 C144.51120299 974.55352596 144.51206232 978.01157829 144.49478849 981.46991869 C144.40816152 1002.7520866 145.75276073 1022.54003244 155 1042 C155.28858887 1042.61536621 155.57717773 1043.23073242 155.87451172 1043.86474609 C165.6453236 1064.39454824 180.47100317 1079.60808518 200 1091 C200.96421875 1091.56589844 201.9284375 1092.13179687 202.921875 1092.71484375 C208.71363498 1095.85871347 214.62978213 1097.98944481 220.9375 1099.8125 C221.64036133 1100.0197168 222.34322266 1100.22693359 223.06738281 1100.44042969 C233.50204108 1103.25432344 244.48896917 1103.14917585 255.22667122 1103.13701439 C256.39055488 1103.13966622 257.55443855 1103.14231804 258.75359142 1103.14505023 C261.95722256 1103.15134839 265.16082031 1103.15327955 268.36445648 1103.153273 C271.85988522 1103.15435178 275.35530389 1103.16115397 278.85072696 1103.1671797 C285.77071848 1103.17820005 292.69070495 1103.18389001 299.61070368 1103.18788858 C307.90372857 1103.19291737 316.19674375 1103.20364713 324.48976287 1103.21437032 C345.47058664 1103.24114447 366.45141497 1103.25623916 387.4322508 1103.26971143 C393.11330976 1103.27338417 398.79436846 1103.27738675 404.47542715 1103.2814641 C439.74574696 1103.30671219 475.01606726 1103.328757 510.28639412 1103.34119225 C518.44776537 1103.34411346 526.6091366 1103.34708103 534.77050781 1103.35009766 C535.78442589 1103.35046857 536.79834396 1103.35083947 537.84298683 1103.35122162 C570.76489618 1103.36339486 603.68675228 1103.39437459 636.6086366 1103.43601918 C670.45900305 1103.47876031 704.30934134 1103.50542667 738.15973551 1103.51066696 C742.93503118 1103.51140743 747.71032679 1103.51231812 752.48562241 1103.51332474 C753.89535046 1103.51361066 753.89535046 1103.51361066 755.33355787 1103.51390236 C770.48205252 1103.51742127 785.6304805 1103.53774221 800.77895062 1103.56412137 C815.98425157 1103.5902019 831.18947513 1103.59802048 846.39479525 1103.58702008 C855.43699618 1103.58102318 864.47893545 1103.58906013 873.52109701 1103.61685092 C879.55173424 1103.63402131 885.58219176 1103.63322362 891.61283255 1103.61748323 C895.05471691 1103.60902064 898.49609969 1103.60866573 901.93793882 1103.63009469 C905.63633151 1103.64898025 909.33338137 1103.63756061 913.03174019 1103.61803246 C914.11270238 1103.63088168 915.19366456 1103.6437309 916.30738318 1103.65696949 C918.96836095 1103.62574981 921.40102592 1103.57029217 924 1103 C926.19193864 1100.75215926 926.19193864 1100.75215926 927 1098 C932.29354513 1091.53746365 938.25444084 1085.66458476 944.2265625 1079.8359375 C946.32714744 1077.68801543 948.289034 1075.53290192 950.2421875 1073.2578125 C955.1786897 1067.55833526 960.60216067 1062.35205988 965.97265625 1057.06640625 C970.32625641 1052.75473482 974.50304257 1048.37784356 978.49414062 1043.72851562 C980.39655796 1041.54480701 982.42186998 1039.51609629 984.5 1037.5 C987.2244154 1034.8122154 989.83260312 1032.10183137 992.3125 1029.1875 C995.81930705 1025.09213792 999.61574437 1021.32422468 1003.47387695 1017.56323242 C1006.19574226 1014.88858547 1008.76554916 1012.14755625 1011.25 1009.25 C1016.377795 1003.32204358 1022.0370362 997.91874046 1027.6171875 992.421875 C1032.09455413 987.98533542 1036.40875792 983.49612366 1040.51171875 978.7109375 C1042.40706557 976.53203486 1044.42783549 974.51030885 1046.5 972.5 C1049.20383393 969.83245914 1051.79255535 967.14540508 1054.25 964.25 C1057.48338967 960.47267562 1060.96700779 956.99317824 1064.5 953.5 C1068.55465898 949.4908798 1072.43978159 945.44135488 1076.12890625 941.08984375 C1079.14150691 937.72503925 1082.38572042 934.59454812 1085.59790039 931.42163086 C1088.90146811 928.14290589 1092.04199539 924.80808777 1094.96667957 921.18115431 C1097 919 1097 919 1099.91511822 916.8149237 C1105.17694729 912.74289527 1109.0243943 908.82378117 1110.11205482 902.06185067 C1110.68311285 895.83882694 1110.56270321 889.61704809 1110.4699707 883.37550354 C1110.47807371 880.95470834 1110.49143782 878.53392603 1110.50959301 876.11318535 C1110.53692901 870.86006425 1110.52718875 865.60837598 1110.48429871 860.35541534 C1110.4206944 852.54366803 1110.42625037 844.73301851 1110.44546784 836.92109033 C1110.47578704 823.77309821 1110.44983098 810.6257793 1110.39102173 797.47790718 C1110.33282257 784.4506053 1110.2978714 771.42359829 1110.29428101 758.39616203 C1110.29403663 757.58486262 1110.29379225 756.77356321 1110.29354047 755.93767897 C1110.29262234 752.64404578 1110.29187365 749.35041261 1110.29134792 746.05677934 C1110.28650395 716.046854 1110.22375399 686.03733977 1110.125 656.02758789 C1110.03191285 627.73361018 1109.97514413 599.4398817 1109.9609375 571.14575195 C1109.96049144 570.27476972 1109.96004538 569.40378749 1109.9595858 568.50641186 C1109.95779029 564.99476411 1109.95602236 561.48311635 1109.95425609 557.97146859 C1109.95337455 556.2212319 1109.95248938 554.47099521 1109.95160057 552.72075852 C1109.95071512 550.97466411 1109.94984004 549.22856969 1109.94897536 547.48247526 C1109.93488807 519.62252544 1109.88903682 491.76262212 1109.83775002 463.90271916 C1109.82290404 455.75794803 1109.80983725 447.61318 1109.80075455 439.46840024 C1109.78147049 422.33936065 1109.75288337 405.21047008 1109.68816388 388.08153332 C1109.66169241 381.00051966 1109.64099195 373.91962482 1109.63832092 366.8385582 C1109.6358618 360.34468227 1109.61329396 353.85107305 1109.57704294 347.35729586 C1109.56709551 345.01949583 1109.56364197 342.68165623 1109.56767809 340.34383852 C1109.61060491 309.50355989 1103.87197881 283.86442462 1082 261 C1081.37480469 260.30003906 1080.74960938 259.60007812 1080.10546875 258.87890625 C1072.59082675 250.76309289 1062.96804458 245.68978176 1053 241.1875 C1052.39671875 240.90962646 1051.7934375 240.63175293 1051.171875 240.34545898 C1039.66298818 235.37832257 1028.00316007 234.57151273 1015.63671875 234.70703125 C1014.10830609 234.71264296 1012.57988794 234.71690559 1011.0514679 234.71989441 C1007.07468134 234.73121951 1003.09823597 234.76057643 999.12158203 234.79400635 C995.04529431 234.82497714 990.96895018 234.83845679 986.89257812 234.85351562 C978.92823076 234.88546129 970.9641581 234.93650329 963 235 C963.00523682 233.86570557 963.01047363 232.73141113 963.01586914 231.56274414 C963.03408928 227.31909995 963.04549371 223.07545916 963.05493164 218.83178711 C963.05993319 217.00170305 963.06673656 215.17162293 963.07543945 213.34155273 C963.08768932 210.69774396 963.09327023 208.05398842 963.09765625 205.41015625 C963.10281754 204.60353043 963.10797882 203.7969046 963.11329651 202.96583557 C963.11514266 183.89768806 956.45627249 168.46447328 944 154 C943.41863281 153.32324219 942.83726562 152.64648438 942.23828125 151.94921875 C931.21234096 140.04490166 912.29615124 130.32087508 895.97265625 129.62890625 C872.65817149 129.21251596 853.71588778 133.72646768 836 150 C833.4744831 152.5357624 831.20050995 155.17896711 829 158 C828.41476562 158.74894531 827.82953125 159.49789062 827.2265625 160.26953125 C810.18881971 183.29652423 813 205.38721664 813 235 C774.39 235 735.78 235 696 235 C696 222.13 696 209.26 696 196 C694.35055507 185.51414524 694.35055507 185.51414524 690.875 175.9375 C690.57005615 175.26195068 690.2651123 174.58640137 689.95092773 173.89038086 C687.04014734 167.67830452 683.36572042 162.29101762 679 157 C678.04287109 155.79923828 678.04287109 155.79923828 677.06640625 154.57421875 C666.37325387 141.77255746 648.37440049 131.67848429 631.70263672 129.58618164 C628.24920779 129.39360101 624.8335682 129.34244652 621.375 129.375 C619.53893188 129.38756836 619.53893188 129.38756836 617.66577148 129.40039062 C597.09934338 129.90944052 580.47043571 138.45063464 566 153 C563.87647726 155.24981154 561.89855053 157.55818952 560 160 C559.57203125 160.54011719 559.1440625 161.08023438 558.703125 161.63671875 C542.52835662 183.05331022 545 209.24209612 545 235 C508.7 235 472.4 235 435 235 C435 222.46 435 209.92 435 197 C430.78212269 175.91061347 422.19283718 157.07764702 404.33203125 144.0546875 C401.59976014 142.27427953 398.83520849 140.61091392 396 139 C395.175 138.525625 394.35 138.05125 393.5 137.5625 C387.25984037 134.20241405 380.92785455 132.40071376 374 131 C373.10539063 130.81695312 372.21078125 130.63390625 371.2890625 130.4453125 C356.916196 128.49934245 343.39647935 129.46033328 330 135 Z " fill="#FDFDFD" transform="translate(0,0)"/>
<path d="M0 0 C0.84691406 0.39703125 1.69382812 0.7940625 2.56640625 1.203125 C10.64843777 5.20390305 16.68087568 10.6901822 23 17 C23.59683594 17.58523437 24.19367188 18.17046875 24.80859375 18.7734375 C45.36616562 40.7237988 43 69.64100868 43 98 C79.3 98 115.6 98 153 98 C153 86.12 153 74.24 153 62 C157.76717313 38.16413433 166.35544657 19.20694104 186.5625 4.8125 C193.58792424 0.29422331 201.1260379 -2.36415341 209 -5 C209.93948486 -5.34691895 210.87896973 -5.69383789 211.84692383 -6.05126953 C228.93200571 -11.19200729 247.8939008 -7.07428837 263.33984375 0.67578125 C280.76410547 10.23385672 293.26597244 24.82528872 300.875 43.125 C306.21595802 61.52163317 304 78.13673606 304 98 C342.61 98 381.22 98 421 98 C421 84.14 421 70.28 421 56 C425.10780922 41.62266773 429.34117957 30.29899748 439 19 C439.4228125 18.4225 439.845625 17.845 440.28125 17.25 C447.05470698 8.32886154 458.69605659 1.13730858 469 -3 C470.37478516 -3.58587891 470.37478516 -3.58587891 471.77734375 -4.18359375 C486.8004454 -9.55031362 506.86862294 -9.66727719 521.66015625 -3.6015625 C523.31337891 -2.80878906 523.31337891 -2.80878906 525 -2 C525.92594971 -1.58186035 525.92594971 -1.58186035 526.87060547 -1.15527344 C546.74233585 7.88688959 559.78162551 23.54898475 568.06640625 43.578125 C570.97867314 51.6255485 571.15188139 59.93563911 571.09765625 68.41015625 C571.0962413 69.26306747 571.09482635 70.1159787 571.09336853 70.99473572 C571.08782939 73.68402816 571.0752888 76.37323328 571.0625 79.0625 C571.05747712 80.90038941 571.0529156 82.73828015 571.04882812 84.57617188 C571.03788 89.05081422 571.02065839 93.52539238 571 98 C572.24336121 97.98667633 572.24336121 97.98667633 573.51184082 97.9730835 C581.39465216 97.89231643 589.27732085 97.83172419 597.1604538 97.79275131 C601.21148089 97.7720401 605.26216087 97.74403173 609.31298828 97.69824219 C613.23582781 97.65418629 617.15833746 97.63073981 621.08140564 97.62049103 C622.5642566 97.61320504 624.04709334 97.59898428 625.52980042 97.57707977 C639.28400148 97.38231099 652.38039309 99.52288595 664.8125 105.75 C665.51987305 106.09651611 666.22724609 106.44303223 666.95605469 106.80004883 C683.95304725 115.36248729 696.63689099 128.63491382 706 145 C706.42796875 145.72703125 706.8559375 146.4540625 707.296875 147.203125 C728.93202712 186.81209581 717 262.60013233 717 291 C398.88 291 80.76 291 -247 291 C-247 151.34615385 -247 151.34615385 -221.6640625 125.62890625 C-220.78492188 124.76136719 -219.90578125 123.89382813 -219 123 C-218.48397217 122.44844238 -217.96794434 121.89688477 -217.4362793 121.32861328 C-213.12064219 116.79021359 -208.56730835 113.49277205 -203.1875 110.3125 C-202.38779785 109.83554688 -201.5880957 109.35859375 -200.76416016 108.8671875 C-181.10983244 97.32321791 -161.33352898 97.57563944 -139.08764648 97.79400635 C-135.57411164 97.82513139 -132.06050903 97.83848873 -128.546875 97.85351562 C-121.6977542 97.88533864 -114.84889672 97.93629 -108 98 C-108.02618408 96.81672119 -108.05236816 95.63344238 -108.0793457 94.41430664 C-108.17122262 89.93957131 -108.22773824 85.46491534 -108.2746582 80.98950195 C-108.29949443 79.06845999 -108.33337581 77.14750931 -108.37719727 75.22680664 C-108.73718696 59.01880011 -107.27991453 43.83987253 -98 30 C-97.51015625 29.21753906 -97.0203125 28.43507812 -96.515625 27.62890625 C-85.61874197 10.99818715 -69.3782049 -1.11998266 -50.16796875 -6.2734375 C-33.94062965 -9.56454847 -14.6591278 -7.74044361 0 0 Z " fill="#3585FD" transform="translate(392,137)"/>
<path d="M0 0 C0.6172998 0.27875977 1.23459961 0.55751953 1.87060547 0.84472656 C21.74233585 9.88688959 34.78162551 25.54898475 43.06640625 45.578125 C45.97867314 53.6255485 46.15188139 61.93563911 46.09765625 70.41015625 C46.09553383 71.68952309 46.09553383 71.68952309 46.09336853 72.99473572 C46.08782939 75.68402816 46.0752888 78.37323328 46.0625 81.0625 C46.05747712 82.90038941 46.0529156 84.73828015 46.04882812 86.57617188 C46.0387364 91.05084089 46.01914983 95.52532421 46 100 C35.11 100 24.22 100 13 100 C12.6875 83.625 12.6875 83.625 12.61206055 78.52197266 C12.30194072 63.58687154 8.9353613 50.9353613 -2 40 C-13.12355729 32.338742 -23.69805213 29.59727597 -37.203125 31.2734375 C-47.97510168 33.59422922 -56.68015792 39.50103758 -62.7578125 48.64453125 C-67.79165754 57.33824913 -69.30775341 65.4607232 -69.25878906 75.41601562 C-69.2622937 76.30995529 -69.26579834 77.20389496 -69.26940918 78.12492371 C-69.27814364 81.05211369 -69.27240679 83.97905796 -69.265625 86.90625 C-69.26697403 88.95690965 -69.26891655 91.00756898 -69.27142334 93.05822754 C-69.27436339 97.34500184 -69.27011303 101.63169249 -69.26074219 105.91845703 C-69.24934839 111.39572052 -69.25591386 116.87278795 -69.26788712 122.35004425 C-69.27513597 126.58125265 -69.2728039 130.81241505 -69.26763153 135.04362488 C-69.2663034 137.0625155 -69.26791324 139.08141038 -69.27259064 141.10029602 C-69.27770576 143.92830366 -69.26987601 146.75599976 -69.25878906 149.58398438 C-69.26283752 150.40710617 -69.26688599 151.23022797 -69.27105713 152.07829285 C-69.18474055 164.04523809 -65.59645783 175.41703657 -57.375 184.375 C-49.1007506 192.01154231 -39.67681789 195.09936995 -28.64453125 195.140625 C-27.20245829 195.15896279 -25.76040058 195.178534 -24.31835938 195.19921875 C-22.07159668 195.22804532 -19.82581643 195.24999709 -17.57885742 195.25048828 C-8.60808478 195.2643397 -0.5256596 195.43137007 7 201 C11.55632618 206.44536544 12.58446049 210.98647417 12 218 C10.19707572 223.24219831 7.79036115 227.03453833 3 230 C-3.62723525 232.66640555 -10.24623462 232.33590915 -17.26489258 232.31567383 C-19.53191534 232.31254225 -21.797594 232.33590218 -24.06445312 232.36132812 C-45.84076173 232.45673952 -66.05489759 224.93760588 -82.13671875 209.9921875 C-98.3527114 192.65433372 -105.1720979 171.75392054 -105.1328125 148.44921875 C-105.13431305 147.21787201 -105.1358136 145.98652527 -105.13735962 144.71786499 C-105.13971589 140.70770796 -105.13352039 136.69764406 -105.125 132.6875 C-105.12272824 131.3099671 -105.12049038 129.93243414 -105.11828613 128.55490112 C-105.10121811 119.03644865 -105.05708351 109.5182945 -105 100 C-104.9937561 98.85092163 -104.98751221 97.70184326 -104.9810791 96.51794434 C-104.94625522 90.57104632 -104.88920895 84.62530403 -104.79046631 78.67910767 C-104.76389912 76.96123656 -104.74339806 75.24325878 -104.72955322 73.52523804 C-104.55064753 53.59806757 -99.16194498 36.39699225 -86 21 C-85.5771875 20.4225 -85.154375 19.845 -84.71875 19.25 C-77.94529302 10.32886154 -66.30394341 3.13730858 -56 -1 C-55.08347656 -1.39058594 -54.16695312 -1.78117188 -53.22265625 -2.18359375 C-36.83896916 -8.03635712 -15.67530745 -7.5168141 0 0 Z " fill="#2E6DFC" transform="translate(917,135)"/>
<path d="M0 0 C0.84691406 0.39703125 1.69382812 0.7940625 2.56640625 1.203125 C10.64843777 5.20390305 16.68087568 10.6901822 23 17 C23.59683594 17.58523437 24.19367188 18.17046875 24.80859375 18.7734375 C40.25666966 35.26813102 42.76394333 54.94709404 42.3125 76.4375 C42.28736016 78.53708252 42.26455713 80.63669437 42.24414062 82.73632812 C42.19395099 87.82555688 42.09602609 92.910617 42 98 C31.11 98 20.22 98 9 98 C8.75 81.8125 8.75 81.8125 8.70214844 76.79223633 C8.45398709 62.90101696 5.90033218 50.57750351 -3.77734375 40.0703125 C-13.01502311 31.26712521 -24.0136762 28.54236234 -36.484375 28.65625 C-47.90243241 29.77268228 -57.46552013 35.56599535 -64.75 44.1875 C-71.08384895 52.71939699 -73.14722875 62.39772178 -73.16113281 72.80078125 C-73.16609772 73.68917191 -73.17106262 74.57756256 -73.17617798 75.49287415 C-73.19078338 78.43275734 -73.19760102 81.37258647 -73.203125 84.3125 C-73.20888038 86.3631185 -73.21463807 88.41373699 -73.22039795 90.46435547 C-73.23090513 94.76839447 -73.23674879 99.07241482 -73.24023438 103.37646484 C-73.24570048 108.86594916 -73.26968932 114.3551831 -73.29820633 119.84458923 C-73.31692601 124.08450006 -73.32204339 128.3243519 -73.32357025 132.56430054 C-73.32657928 134.58630737 -73.33454799 136.6083136 -73.34775543 138.63027954 C-73.44259298 154.27347029 -73.29196752 169.21719995 -61.85546875 181.2578125 C-52.96611744 189.46569736 -44.28930504 193.31303977 -32.09765625 193.23828125 C-30.61522517 193.25369642 -29.13280311 193.26999973 -27.65039062 193.28710938 C-25.35534439 193.30353233 -23.06096922 193.31249528 -20.76586914 193.30541992 C-3.95175247 193.28561107 -3.95175247 193.28561107 3 199 C7.67893934 203.91288631 8.30631988 207.93769195 8.2109375 214.5 C7.77947465 219.61363379 5.75880594 222.27418562 2.125 225.75 C-3.00385399 229.44277487 -6.80467879 230.26024208 -13.109375 230.3359375 C-13.78923965 230.34427109 -14.46910431 230.35260468 -15.16957092 230.3611908 C-17.36327682 230.38058227 -19.55622237 230.38065106 -21.75 230.375 C-22.4954306 230.37478851 -23.24086121 230.37457703 -24.00888062 230.37435913 C-35.14675391 230.34267179 -45.40845841 229.74250777 -56 226 C-57.09570312 225.62617188 -58.19140625 225.25234375 -59.3203125 224.8671875 C-77.04938565 218.15768864 -91.60931986 203.98937657 -100.25 187.3125 C-100.56727051 186.71429443 -100.88454102 186.11608887 -101.21142578 185.49975586 C-108.53357083 170.63422386 -108.61062644 155.72147806 -108.56640625 139.5078125 C-108.5716538 137.14858762 -108.57793438 134.78936483 -108.58518982 132.43014526 C-108.59554555 127.50655178 -108.59110254 122.58324817 -108.57641602 117.65966797 C-108.55924259 111.39390682 -108.5827327 105.12906404 -108.61790562 98.86340523 C-108.64001437 93.99704066 -108.63840552 89.13089126 -108.6301403 84.26449203 C-108.62932803 81.95634835 -108.6360506 79.64818769 -108.65091133 77.34009171 C-108.74315314 60.42358083 -107.70717726 44.47708333 -98 30 C-97.51015625 29.21753906 -97.0203125 28.43507812 -96.515625 27.62890625 C-85.61874197 10.99818715 -69.3782049 -1.11998266 -50.16796875 -6.2734375 C-33.94062965 -9.56454847 -14.6591278 -7.74044361 0 0 Z " fill="#2E6DFC" transform="translate(392,137)"/>
<path d="M0 0 C18.08503464 9.92054233 32.6940684 26.32027712 38.66015625 46.32421875 C39.71656267 52.12823993 39.79054355 57.75843576 39.7578125 63.6328125 C39.75569008 65.08289452 39.75569008 65.08289452 39.75352478 66.56227112 C39.74795846 69.62878607 39.73541224 72.69522613 39.72265625 75.76171875 C39.7176369 77.84960832 39.71307475 79.93749903 39.70898438 82.02539062 C39.69885394 87.12505158 39.67927204 92.22455202 39.66015625 97.32421875 C28.77015625 97.32421875 17.88015625 97.32421875 6.66015625 97.32421875 C6.41015625 81.13671875 6.41015625 81.13671875 6.36230469 76.11645508 C6.11498544 62.27237367 3.61767167 49.7962287 -6.15234375 39.39453125 C-15.06592228 31.02008045 -24.43891875 28.00050742 -36.4765625 28.1796875 C-47.62682104 28.74252456 -55.96757985 32.98672904 -64.33984375 40.32421875 C-70.79814029 48.81226563 -75.46043569 58.1098405 -75.47265625 68.90234375 C-75.47616089 70.69164307 -75.47616089 70.69164307 -75.47973633 72.51708984 C-75.47568206 73.86946918 -75.47067964 75.22184593 -75.46484375 76.57421875 C-75.46102188 77.61802704 -75.46102188 77.61802704 -75.4571228 78.68292236 C-75.44001053 82.81310494 -75.41286663 86.94314615 -75.38134766 91.07324219 C-75.34722237 95.71713246 -75.32978244 100.3608835 -75.31787109 105.00488281 C-75.30094732 111.39838093 -75.26212377 117.79146072 -75.20454025 124.1847229 C-75.17255616 127.79025812 -75.14869822 131.39541445 -75.14483643 135.00109863 C-75.13976701 139.11713793 -75.09454707 143.23188891 -75.046875 147.34765625 C-75.05079758 148.57791534 -75.05472015 149.80817444 -75.0587616 151.07571411 C-74.85638965 163.15377419 -70.90274129 173.64470588 -62.33984375 182.32421875 C-50.39396175 192.64111684 -38.03257436 192.78111429 -22.99584961 192.68457031 C-13.17180727 192.64648853 -5.23836953 192.89805251 2.34912109 199.87792969 C5.62910683 203.33165089 6.14739619 207.04799985 6.47265625 211.69921875 C6.2337947 217.97476299 4.29726825 221.17593644 -0.00390625 225.6171875 C-4.81895493 229.13587692 -9.7098003 229.5897799 -15.546875 229.66015625 C-16.56468552 229.67258865 -16.56468552 229.67258865 -17.60305786 229.68527222 C-19.78637704 229.70451029 -21.96895339 229.70460769 -24.15234375 229.69921875 C-24.89461212 229.6993396 -25.63688049 229.69946045 -26.40164185 229.69958496 C-37.52547034 229.67369003 -47.74749069 228.99963764 -58.33984375 225.32421875 C-59.26539063 225.03546875 -60.1909375 224.74671875 -61.14453125 224.44921875 C-81.46676115 217.35859648 -95.72709487 200.16512474 -105.0859375 181.53125 C-108.42625806 172.98793791 -109.78253015 165.08453059 -109.7121582 155.93701172 C-109.71580887 154.85746216 -109.71945953 153.7779126 -109.72322083 152.66564941 C-109.73126142 149.13240336 -109.71777184 145.5996253 -109.703125 142.06640625 C-109.70260569 139.59262085 -109.70312613 137.11883504 -109.70463562 134.64505005 C-109.70454619 129.47570588 -109.69417524 124.30651862 -109.67602539 119.13720703 C-109.65331576 112.52554706 -109.65280173 105.91411556 -109.65954304 99.30242729 C-109.66289071 94.19965601 -109.65623823 89.09693642 -109.6464138 83.99417496 C-109.6425771 81.55662431 -109.64140721 79.11906789 -109.64299965 76.68151474 C-109.64337221 73.27177801 -109.6306971 69.8623299 -109.61450195 66.45263672 C-109.61697937 65.45499298 -109.61945679 64.45734924 -109.62200928 63.42947388 C-109.47409016 43.82761507 -100.52367907 26.85245057 -87.21484375 12.82421875 C-77.52691578 3.45868439 -66.8975817 -1.47201823 -54.33984375 -5.67578125 C-53.40035889 -6.0227002 -52.46087402 -6.36961914 -51.49291992 -6.72705078 C-34.40783804 -11.86778854 -15.44594295 -7.75006962 0 0 Z " fill="#2F6DFC" transform="translate(655.33984375,137.67578125)"/>
<path d="M0 0 C0.78752655 -0.00978378 1.5750531 -0.01956757 2.38644409 -0.02964783 C4.98840666 -0.05952089 7.59031814 -0.08096464 10.19238281 -0.09985352 C11.08339943 -0.10642534 11.97441605 -0.11299717 12.89243317 -0.11976814 C17.6089367 -0.15232625 22.32541797 -0.1767858 27.04199219 -0.19628906 C30.93750977 -0.21409724 34.83230282 -0.24891433 38.72753906 -0.29882812 C43.43956712 -0.35912928 48.15092388 -0.38977783 52.8633194 -0.39946175 C54.6542467 -0.40800009 56.44515685 -0.42677821 58.23586273 -0.45620537 C75.14341272 -0.71909384 75.14341272 -0.71909384 80.75567627 4.52745056 C81.21432068 5.08227615 81.67296509 5.63710175 82.14550781 6.20874023 C82.68230164 6.85247086 83.21909546 7.49620148 83.77215576 8.15943909 C86.6218444 12.4117138 86.29884642 16.83006197 86.30664062 21.80371094 C86.31408798 22.94351913 86.31408798 22.94351913 86.32168579 24.10635376 C86.33626916 26.61575228 86.34310312 29.12508758 86.34863281 31.63452148 C86.35438754 33.38323467 86.36014523 35.13194784 86.36590576 36.88066101 C86.37640495 40.54658298 86.38225465 44.21248309 86.38574219 47.87841797 C86.39122376 52.56577481 86.41524912 57.25284071 86.44371414 61.94010639 C86.4623783 65.55273776 86.46754814 69.16529958 86.46907806 72.77797508 C86.47209674 74.50547055 86.48009866 76.23296503 86.49326324 77.96041298 C86.51040264 80.38235969 86.5084245 82.80360246 86.50195312 85.22558594 C86.51116791 85.93284317 86.52038269 86.6401004 86.52987671 87.36878967 C86.4715329 94.37279001 84.14349948 100.21074857 79.14550781 105.20874023 C74.05566261 107.82728586 69.87165718 108.64915493 64.1340332 108.61279297 C62.98134697 108.62308784 62.98134697 108.62308784 61.80537415 108.6335907 C59.2844454 108.65177758 56.76414384 108.64803298 54.24316406 108.64233398 C52.47871195 108.64689969 50.71426162 108.65220642 48.94981384 108.65821838 C45.25886798 108.66713355 41.56813867 108.66474458 37.87719727 108.65478516 C33.161845 108.64329744 28.44724185 108.66351186 23.73198795 108.69270229 C20.09011639 108.71110312 16.44842306 108.71076413 12.80651665 108.70506477 C11.06868883 108.70491203 9.33084857 108.71091704 7.59306526 108.72335625 C5.15703293 108.73833858 2.72236832 108.72753758 0.28637695 108.71044922 C-0.77607239 108.72495117 -0.77607239 108.72495117 -1.85998535 108.73974609 C-8.42654223 108.6439373 -13.676538 106.44400901 -18.22949219 101.77124023 C-21.46618165 96.66722993 -22.14973957 92.38458173 -22.12915039 86.40844727 C-22.13426132 85.63867554 -22.13937225 84.86890381 -22.14463806 84.07580566 C-22.15850112 81.5393082 -22.15757963 79.00308351 -22.15527344 76.46655273 C-22.15916248 74.69684753 -22.16349758 72.92714326 -22.16825867 71.15744019 C-22.17571403 67.45038832 -22.17543478 63.74343169 -22.17016602 60.03637695 C-22.16437557 55.2963371 -22.18129536 50.55668853 -22.20451069 45.81671333 C-22.21927576 42.16203549 -22.2201159 38.50745125 -22.21700096 34.85274887 C-22.21751289 33.10572409 -22.22272639 31.35869389 -22.23281288 29.61169815 C-22.2452125 27.16348449 -22.23836469 24.71602475 -22.22680664 22.26782227 C-22.23445038 21.55278534 -22.24209412 20.83774841 -22.24996948 20.1010437 C-22.19051109 14.37476917 -20.95691141 9.65749766 -17.17089844 5.24780273 C-16.59210938 4.78116211 -16.01332031 4.31452148 -15.41699219 3.83374023 C-14.55267578 3.11057617 -14.55267578 3.11057617 -13.67089844 2.37280273 C-9.48783104 -0.30795874 -4.81861361 0.03797903 0 0 Z " fill="#3686FD" transform="translate(263.8544921875,531.791259765625)"/>
<path d="M0 0 C0.76977173 -0.00511093 1.53954346 -0.01022186 2.3326416 -0.01548767 C4.86913906 -0.02935073 7.40536376 -0.02842924 9.94189453 -0.02612305 C11.71159973 -0.03001209 13.48130401 -0.03434719 15.25100708 -0.03910828 C18.95805895 -0.04656364 22.66501557 -0.04628439 26.37207031 -0.04101562 C31.11211017 -0.03522518 35.85175874 -0.05214497 40.59173393 -0.0753603 C44.24641177 -0.09012537 47.90099601 -0.09096551 51.55569839 -0.08785057 C53.30272318 -0.0883625 55.04975338 -0.093576 56.79674911 -0.10366249 C59.24496278 -0.11606211 61.69242251 -0.1092143 64.140625 -0.09765625 C65.21318039 -0.10912186 65.21318039 -0.10912186 66.30740356 -0.12081909 C72.70193011 -0.05442195 77.20221266 1.49910765 82.01220703 5.7746582 C86.05853324 10.39903102 86.50498272 13.44919144 86.52197266 19.3828125 C86.53686737 20.62240471 86.53686737 20.62240471 86.55206299 21.88703918 C86.58129972 24.62435226 86.59491082 27.3614333 86.60595703 30.09887695 C86.61746324 32.00356553 86.62897867 33.90825404 86.64050293 35.8129425 C86.66152291 39.81020181 86.67320728 43.8073807 86.68017578 47.8046875 C86.69112696 52.91493391 86.73913956 58.02410953 86.79611969 63.13402081 C86.83346507 67.07097927 86.84378859 71.00768264 86.84684753 74.94480324 C86.85288408 76.82781624 86.86888576 78.71082562 86.8952179 80.59366417 C87.12486504 98.28138341 87.12486504 98.28138341 82.27038574 103.91682434 C76.50829538 107.69527697 70.74576471 108.72123224 63.96704102 108.67871094 C62.79709595 108.68900581 62.79709595 108.68900581 61.60351562 108.69950867 C59.05075367 108.7176627 56.4986128 108.7139567 53.94580078 108.70825195 C52.15796206 108.71281827 50.37012509 108.71812517 48.58229065 108.72413635 C44.84604737 108.73304431 41.11001813 108.73066966 37.3737793 108.72070312 C32.5967064 108.70919873 27.8203711 108.72945906 23.04339504 108.75862026 C19.3552434 108.77700134 15.66726807 108.77668631 11.97908211 108.77098274 C10.21809922 108.77082986 8.45710413 108.77684713 6.69616508 108.78927422 C4.23130331 108.80422424 1.76779905 108.79348001 -0.69702148 108.77636719 C-1.41669601 108.78603516 -2.13637054 108.79570313 -2.87785339 108.80566406 C-8.35671082 108.72638329 -11.38963532 107.30141212 -15.80029297 104.2746582 C-20.50295594 98.33445235 -20.95223111 93.72096329 -21.04077148 86.34423828 C-21.05376785 85.54856445 -21.06676422 84.75289062 -21.08015442 83.93310547 C-21.20675979 75.6246032 -21.26358477 67.31510882 -21.31518555 59.00585938 C-21.34192483 55.06843928 -21.39065377 51.13223062 -21.45874023 47.1953125 C-21.54090494 42.43134929 -21.58340152 37.66853914 -21.59824944 32.90390587 C-21.61045863 31.09419925 -21.63640225 29.28452838 -21.67669868 27.47522926 C-22.0131118 11.57386889 -22.0131118 11.57386889 -17.06176758 5.71875 C-11.86920217 0.79849183 -6.96944356 -0.02401136 0 0 Z " fill="#3686FD" transform="translate(924.80029296875,704.725341796875)"/>
<path d="M0 0 C0.75987213 -0.0049649 1.51974426 -0.00992981 2.30264282 -0.01504517 C4.81204134 -0.02962853 7.32137664 -0.0364625 9.83081055 -0.04199219 C11.57952373 -0.04774691 13.32823691 -0.05350461 15.07695007 -0.05926514 C18.74287204 -0.06976433 22.40877215 -0.07561403 26.07470703 -0.07910156 C30.76206387 -0.08458314 35.44912978 -0.10860849 40.13639545 -0.13707352 C43.74902682 -0.15573767 47.36158864 -0.16090751 50.97426414 -0.16243744 C52.70175962 -0.16545611 54.42925409 -0.17345803 56.15670204 -0.18662262 C58.57864875 -0.20376201 60.99989152 -0.20178387 63.421875 -0.1953125 C64.12913223 -0.20452728 64.83638947 -0.21374207 65.56507874 -0.22323608 C71.27096845 -0.17570563 76.04007566 1.04586552 80.3659668 4.91503906 C81.06592773 5.81029297 81.06592773 5.81029297 81.7800293 6.72363281 C82.26213867 7.32304688 82.74424805 7.92246094 83.2409668 8.54003906 C85.88582067 12.22330872 85.58083649 15.68651522 85.61376953 20.06396484 C85.62355331 20.88046005 85.6333371 21.69695526 85.64341736 22.53819275 C85.67340208 25.24842698 85.69476925 27.95861158 85.71362305 30.66894531 C85.72019487 31.59489376 85.7267667 32.52084221 85.73353767 33.4748497 C85.76615017 38.37937645 85.7905923 43.28388134 85.81005859 48.18847656 C85.82784907 52.2431617 85.86262999 56.29714841 85.91259766 60.3515625 C85.97288945 65.24931298 86.00354733 70.14641741 86.01323128 75.04452133 C86.02177479 76.90801378 86.0405657 78.77148949 86.0699749 80.63476944 C86.33263065 98.22818777 86.33263065 98.22818777 81.18397522 103.79684448 C76.16046245 107.64941795 72.46581749 108.60813838 66.16162109 108.59692383 C65.34468781 108.60699966 64.52775452 108.6170755 63.68606567 108.62745667 C60.99198628 108.65589539 58.2984681 108.66181133 55.60424805 108.66503906 C53.72483594 108.67468387 51.84542608 108.68477662 49.96601868 108.69529724 C46.02774843 108.71324899 42.08967546 108.71881934 38.15136719 108.71704102 C33.11735068 108.71673642 28.08460621 108.75767088 23.05089092 108.80935764 C19.16881053 108.84280075 15.28703488 108.84879614 11.40482521 108.84721184 C9.54973788 108.85074056 7.69464171 108.86394632 5.83969688 108.88720894 C-11.5600692 109.08497117 -11.5600692 109.08497117 -17.22697449 104.23057556 C-21.05214902 98.44402468 -22.04115093 92.63895149 -21.99902344 85.82080078 C-22.00588669 85.02947754 -22.01274994 84.2381543 -22.01982117 83.42285156 C-22.03797655 80.83282027 -22.03426946 78.24340095 -22.02856445 75.65332031 C-22.03313025 73.84066574 -22.03843701 72.0280129 -22.04444885 70.21536255 C-22.05335671 66.42784564 -22.05098173 62.64053987 -22.04101562 58.85302734 C-22.0295031 54.00635803 -22.04978401 49.16041484 -22.07893276 44.31384087 C-22.09729659 40.57511799 -22.09700239 36.83656931 -22.09129524 33.09781265 C-22.09114219 31.31088362 -22.0971734 29.52394266 -22.10958672 27.73705673 C-22.12450635 25.23846774 -22.11381512 22.74122339 -22.09667969 20.24267578 C-22.10634766 19.51005524 -22.11601563 18.77743469 -22.12597656 18.02261353 C-22.04199398 12.15871162 -20.00230018 8.69484708 -16.0324707 4.51660156 C-10.68781976 0.17407267 -6.71153304 0.01051764 0 0 Z " fill="#3686FD" transform="translate(591.594970703125,877.8388671875)"/>
<path d="M0 0 C0.78142365 -0.00394272 1.56284729 -0.00788544 2.36795044 -0.01194763 C4.93143424 -0.01861915 7.49310547 0.01041953 10.05639648 0.04077148 C11.84805456 0.04502607 13.63971816 0.04735066 15.43138123 0.0478363 C19.17798012 0.05398825 22.92397801 0.07662352 26.67041016 0.11230469 C31.46426344 0.15760847 36.25757383 0.17233346 41.05162144 0.1760416 C44.74831965 0.18047755 48.44490484 0.19579388 52.14155388 0.21491814 C53.9089255 0.22377432 55.67630905 0.23051688 57.44369698 0.23507881 C59.91579407 0.24415765 62.38740951 0.26657885 64.859375 0.29296875 C65.94663628 0.29396576 65.94663628 0.29396576 67.05586243 0.29498291 C74.59585848 0.40564176 79.50645935 2.24083435 84.86499023 7.59936523 C87.50760115 12.68286533 88.30542091 16.87069354 88.26904297 22.61083984 C88.27590622 23.37929733 88.28276947 24.14775482 88.2898407 24.9394989 C88.30802758 27.46042764 88.30428298 29.9807292 88.29858398 32.50170898 C88.30314969 34.26616109 88.30845642 36.03061143 88.31446838 37.7950592 C88.32338355 41.48600507 88.32099458 45.17673438 88.31103516 48.86767578 C88.29954744 53.58302804 88.31976186 58.29763119 88.34895229 63.01288509 C88.36735312 66.65475666 88.36701413 70.29644998 88.36131477 73.9383564 C88.36116203 75.67618422 88.36716704 77.41402448 88.37960625 79.15180779 C88.39458858 81.58784012 88.38378758 84.02250473 88.36669922 86.45849609 C88.37636719 87.16679565 88.38603516 87.87509521 88.39599609 88.6048584 C88.30911183 94.55974505 86.47197386 99.77215317 82.41773129 104.16888332 C77.18974489 108.77479673 72.67971152 108.75211503 65.97875977 108.77636719 C65.18802063 108.78293839 64.39728149 108.78950958 63.58258057 108.79627991 C60.97098692 108.81595901 58.35945057 108.82766198 55.74780273 108.83764648 C54.85428982 108.84172201 53.9607769 108.84579754 53.04018784 108.84999657 C48.31300845 108.87083192 43.5858579 108.88514594 38.85864258 108.89453125 C33.98053872 108.90560492 29.10288985 108.94002301 24.22494698 108.97970295 C20.46909747 109.00585889 16.71335673 109.01422205 12.95742416 109.01781273 C11.15930983 109.02267943 9.36120038 109.03429585 7.5631752 109.05285072 C5.04508658 109.0772263 2.52818051 109.07628066 0.01000977 109.06933594 C-0.72889496 109.082146 -1.46779968 109.09495605 -2.22909546 109.1081543 C-7.33961829 109.05690487 -10.19008239 107.79469748 -14.13500977 104.59936523 C-18.6880422 99.43105815 -19.2890043 96.31158691 -19.31201172 89.57299805 C-19.32186852 88.328806 -19.32186852 88.328806 -19.33192444 87.05947876 C-19.35167763 84.30714838 -19.3633252 81.55487264 -19.37329102 78.80249023 C-19.37736654 77.86301292 -19.38144207 76.92353561 -19.3856411 75.95558929 C-19.40651157 70.98203246 -19.42080842 66.00850329 -19.43017578 61.03491211 C-19.44123552 55.89892972 -19.47562762 50.76338115 -19.51534748 45.62755203 C-19.54150289 41.67782794 -19.54986672 37.72820731 -19.55345726 33.77840424 C-19.55832688 31.88539453 -19.56995156 29.99238956 -19.58849525 28.09946442 C-19.61286141 25.44706461 -19.6119263 22.79578817 -19.60498047 20.14331055 C-19.61779053 19.36386078 -19.63060059 18.58441101 -19.64379883 17.78134155 C-19.59446143 12.60180927 -18.63848435 9.64168393 -15.13500977 5.59936523 C-10.47344999 1.17784561 -6.44695442 -0.13231017 0 0 Z " fill="#3686FD" transform="translate(262.135009765625,704.400634765625)"/>
<path d="M0 0 C0.75826584 -0.0065712 1.51653168 -0.0131424 2.29777527 -0.01991272 C4.80235909 -0.03959138 7.30688309 -0.05129648 9.81152344 -0.0612793 C10.66944237 -0.06535482 11.5273613 -0.06943035 12.41127777 -0.07362938 C16.95273089 -0.09446748 21.49415399 -0.10877867 26.03564453 -0.11816406 C30.71402239 -0.1292207 35.39192363 -0.16361833 40.07013321 -0.20333576 C43.67851617 -0.22954389 47.28678628 -0.23785963 50.89525604 -0.24144554 C52.61915046 -0.24630105 54.34304019 -0.25788541 56.06684113 -0.27648354 C58.48634595 -0.30096415 60.9046267 -0.2998942 63.32421875 -0.29296875 C64.02788071 -0.30577881 64.73154266 -0.31858887 65.45652771 -0.33178711 C71.38868651 -0.27030079 76.69413651 1.53971454 80.99058914 5.69518566 C85.10595049 10.52965322 85.57283399 13.65843523 85.58203125 19.80444336 C85.58947861 20.9852951 85.58947861 20.9852951 85.59707642 22.19000244 C85.61171813 24.80286527 85.61850519 27.41566728 85.62402344 30.02856445 C85.62977552 31.84500124 85.63553325 33.66143801 85.64129639 35.47787476 C85.65181365 39.29278852 85.65765081 43.10768119 85.66113281 46.92260742 C85.66660332 51.79824739 85.69059725 56.67360607 85.71910477 61.5491581 C85.73778509 65.30509233 85.74293973 69.06095974 85.74446869 72.81693649 C85.7474862 74.613382 85.75548413 76.40982658 85.76865387 78.20622635 C85.78581896 80.72876166 85.78380829 83.25062242 85.77734375 85.77319336 C85.78655853 86.50804962 85.79577332 87.24290588 85.80526733 88.00003052 C85.76283192 93.31911443 84.61358578 97.31489736 82.42089844 102.17700195 C79.92089844 104.55200195 79.92089844 104.55200195 77.42089844 106.17700195 C76.43089844 106.83700195 75.44089844 107.49700195 74.42089844 108.17700195 C71.70463649 108.38177579 69.09005563 108.4707088 66.37280273 108.4675293 C65.55294891 108.47424652 64.73309509 108.48096375 63.88839722 108.48788452 C61.17390912 108.50690564 58.45966781 108.510791 55.74511719 108.51293945 C53.85805662 108.51936535 51.97099706 108.52609355 50.0839386 108.53311157 C46.12535289 108.54509521 42.16685452 108.54879136 38.20825195 108.54760742 C33.14064364 108.54740436 28.07359694 108.5746884 23.00612164 108.60915184 C19.10699401 108.63141417 15.20800158 108.63544514 11.30881691 108.63438797 C9.44093709 108.63674563 7.57305364 108.64557845 5.70523643 108.6610527 C3.08881995 108.68069599 0.47361462 108.67488116 -2.14282227 108.6628418 C-2.91135025 108.67408081 -3.67987823 108.68531982 -4.47169495 108.69689941 C-9.66038079 108.63636983 -12.59110969 107.46388382 -16.57910156 104.17700195 C-21.22406936 98.15109779 -21.72921519 93.72010663 -21.75610352 86.29077148 C-21.76267471 85.50003235 -21.76924591 84.70929321 -21.77601624 83.89459229 C-21.79569533 81.28299864 -21.8073983 78.67146229 -21.81738281 76.05981445 C-21.82145834 75.16630154 -21.82553387 74.27278862 -21.82973289 73.35219955 C-21.85056824 68.62502017 -21.86488227 63.89786962 -21.87426758 59.1706543 C-21.88534125 54.29255044 -21.91975934 49.41490157 -21.95943928 44.53695869 C-21.98559522 40.78110919 -21.99395838 37.02536845 -21.99754906 33.26943588 C-22.00241576 31.47132155 -22.01403218 29.6732121 -22.03258705 27.87518692 C-22.05696263 25.3570983 -22.05601698 22.84019223 -22.04907227 20.32202148 C-22.06188232 19.58311676 -22.07469238 18.84421204 -22.08789062 18.08291626 C-22.02876729 12.18721771 -20.00699499 8.73235978 -16.01660156 4.5324707 C-10.68063928 0.19700135 -6.70085545 0.02531469 0 0 Z " fill="#3686FD" transform="translate(427.5791015625,877.822998046875)"/>
<path d="M0 0 C0.7597261 -0.0049649 1.51945221 -0.00992981 2.30220032 -0.01504517 C4.81703599 -0.02965608 7.33180853 -0.03646776 9.84667969 -0.04199219 C11.59682212 -0.04774548 13.34696453 -0.05350319 15.09710693 -0.05926514 C18.76900526 -0.06977274 22.44088172 -0.07561666 26.11279297 -0.07910156 C30.80802559 -0.08457918 35.50296718 -0.10859248 40.19810867 -0.13707352 C43.81503124 -0.15573971 47.43188435 -0.16090766 51.04885101 -0.16243744 C52.77913755 -0.16545661 54.50942307 -0.17346022 56.23966217 -0.18662262 C58.66650712 -0.20376315 61.09264958 -0.20178338 63.51953125 -0.1953125 C64.22835953 -0.20452728 64.93718781 -0.21374207 65.66749573 -0.22323608 C72.67720429 -0.16497067 78.51591139 2.15848951 83.51855469 7.16113281 C86.14358832 12.25884752 86.9557654 16.44108411 86.90673828 22.18847656 C86.91199524 22.95854034 86.9172522 23.72860413 86.92266846 24.52200317 C86.9357882 27.04775751 86.92715922 29.57287294 86.91699219 32.09863281 C86.91901524 33.86547974 86.9219286 35.63232584 86.9256897 37.39916992 C86.93010217 41.0943195 86.92371678 44.78925087 86.90966797 48.484375 C86.89257669 53.20868806 86.90242366 57.93248973 86.92038536 62.65678406 C86.93125235 66.30289528 86.92776351 69.94888628 86.92000198 73.59500122 C86.91800803 75.33643658 86.92043083 77.07788303 86.92744064 78.81930542 C86.93510335 81.25775861 86.92338434 83.69539624 86.90673828 86.13378906 C86.91281097 86.8456839 86.91888367 87.55757874 86.92514038 88.29104614 C86.8533095 94.00254151 85.61116437 98.72380089 81.83496094 103.12207031 C81.25617188 103.58871094 80.67738281 104.05535156 80.08105469 104.53613281 C79.50484375 105.01824219 78.92863281 105.50035156 78.33496094 105.99707031 C74.13664558 108.6876036 69.46646052 108.32063901 64.63232422 108.33813477 C63.84158508 108.34470596 63.05084595 108.35127716 62.23614502 108.35804749 C59.62455138 108.37772658 57.01301503 108.38942955 54.40136719 108.39941406 C53.50785427 108.40348959 52.61434135 108.40756512 51.69375229 108.41176414 C46.96657291 108.43259949 42.23942236 108.44691352 37.51220703 108.45629883 C32.63410318 108.4673725 27.7564543 108.50179059 22.87851143 108.54147053 C19.12266192 108.56762647 15.36692119 108.57598963 11.61098862 108.57958031 C9.81287428 108.58444701 8.01476484 108.59606343 6.21673965 108.6146183 C3.69865103 108.63899388 1.18174496 108.63804823 -1.33642578 108.63110352 C-2.07533051 108.64391357 -2.81423523 108.65672363 -3.57553101 108.66992188 C-8.68605383 108.61867245 -11.53651794 107.35646506 -15.48144531 104.16113281 C-20.03447774 98.99282573 -20.63543985 95.87335449 -20.65844727 89.13476562 C-20.66830406 87.89057358 -20.66830406 87.89057358 -20.67835999 86.62124634 C-20.69811317 83.86891596 -20.70976075 81.11664022 -20.71972656 78.36425781 C-20.72380209 77.4247805 -20.72787762 76.48530319 -20.73207664 75.51735687 C-20.75294712 70.54380004 -20.76724397 65.57027086 -20.77661133 60.59667969 C-20.78767107 55.4606973 -20.82206317 50.32514872 -20.86178303 45.18931961 C-20.88793844 41.23959552 -20.89630227 37.28997489 -20.89989281 33.34017181 C-20.90476243 31.44716211 -20.91638711 29.55415714 -20.9349308 27.66123199 C-20.95929695 25.00883219 -20.95836185 22.35755575 -20.95141602 19.70507812 C-20.96422607 18.92562836 -20.97703613 18.14617859 -20.99023438 17.34310913 C-20.94100127 12.1745254 -19.88101794 9.26592764 -16.48144531 5.16113281 C-10.90261756 0.94854859 -6.82986123 0.0106494 0 0 Z " fill="#3686FD" transform="translate(263.4814453125,877.8388671875)"/>
<path d="M0 0 C0.7696257 -0.0049649 1.5392514 -0.00992981 2.3321991 -0.01504517 C4.87406311 -0.02962976 7.41586471 -0.0364627 9.95776367 -0.04199219 C11.7288971 -0.0477468 13.50003053 -0.0535045 15.27116394 -0.05926514 C18.98416432 -0.06976467 22.69714312 -0.07561415 26.41015625 -0.07910156 C31.15804562 -0.08458329 35.90564778 -0.10860885 40.65344715 -0.13707352 C44.31240156 -0.1557363 47.97128729 -0.16090744 51.63028526 -0.16243744 C53.38010922 -0.16545641 55.12993219 -0.17345933 56.87970924 -0.18662262 C59.33278621 -0.20375913 61.78516801 -0.20178455 64.23828125 -0.1953125 C65.31319321 -0.20913467 65.31319321 -0.20913467 66.40982056 -0.22323608 C72.81404647 -0.1705515 77.30882764 1.37943968 82.12573242 5.66113281 C86.163052 10.27521233 86.61068613 13.28983876 86.60375977 19.20922852 C86.61047699 20.02908234 86.61719421 20.84893616 86.62411499 21.69363403 C86.64313611 24.40812213 86.64702147 27.12236344 86.64916992 29.83691406 C86.65559582 31.72397463 86.66232402 33.61103419 86.66934204 35.49809265 C86.68132568 39.45667836 86.68502183 43.41517673 86.68383789 47.3737793 C86.68363483 52.44138761 86.71091887 57.50843431 86.74538231 62.57590961 C86.76764464 66.47503724 86.77167561 70.37402967 86.77061844 74.27321434 C86.7729761 76.14109416 86.78180892 78.00897761 86.79728317 79.87679482 C86.81692646 82.4932113 86.81111162 85.10841663 86.79907227 87.72485352 C86.81031128 88.4933815 86.82155029 89.26190948 86.83312988 90.0537262 C86.75899929 96.40831062 84.37297061 99.68944699 80.43823242 104.41113281 C75.73767585 108.2821794 70.35102829 108.45634958 64.49121094 108.43579102 C63.73104675 108.44090195 62.97088257 108.44601288 62.18768311 108.45127869 C59.68908693 108.46511399 57.19076846 108.46422259 54.69213867 108.46191406 C52.94628294 108.46580417 51.20042816 108.47013949 49.45457458 108.47489929 C45.80057707 108.48234835 42.14667619 108.48207966 38.49267578 108.47680664 C33.82104382 108.47101208 29.14980835 108.48794898 24.47824192 108.51115131 C20.87417812 108.52591584 17.27020922 108.52675669 13.66612053 108.52364159 C11.94421541 108.52415338 10.22230479 108.5293643 8.50042915 108.53945351 C6.08824347 108.55185438 3.67682279 108.54500502 1.26464844 108.53344727 C0.56053329 108.541091 -0.14358185 108.54873474 -0.86903381 108.55661011 C-6.56036153 108.49663931 -11.3330409 107.26635847 -15.64770508 103.40722656 C-16.34766602 102.51197266 -16.34766602 102.51197266 -17.06176758 101.59863281 C-17.54387695 100.99921875 -18.02598633 100.39980469 -18.52270508 99.78222656 C-21.14349366 96.13247066 -20.84150487 92.76227509 -20.84790039 88.42602539 C-20.8528653 87.62743103 -20.8578302 86.82883667 -20.86294556 86.00604248 C-20.87758605 83.35590765 -20.88437363 80.70583275 -20.88989258 78.05566406 C-20.89564414 76.2144114 -20.90140187 74.37315875 -20.90716553 72.53190613 C-20.91768202 68.66571778 -20.92351989 64.79955026 -20.92700195 60.93334961 C-20.93247661 55.98811086 -20.95647984 51.04314886 -20.98497391 46.09799671 C-21.00363664 42.29149077 -21.00880791 38.48505086 -21.01033783 34.67850304 C-21.01335858 32.85611146 -21.02136757 31.03372088 -21.03452301 29.21137428 C-21.05165349 26.65510956 -21.04968591 24.09951235 -21.04321289 21.54321289 C-21.05242767 20.79541061 -21.06164246 20.04760834 -21.07113647 19.27714539 C-21.02635708 13.60765294 -19.93682908 8.83720596 -16.22192383 4.41894531 C-10.76581184 0.22193609 -6.72723519 0.01040584 0 0 Z " fill="#3686FD" transform="translate(924.686767578125,531.8388671875)"/>
<path d="M0 0 C0.76001816 -0.0049649 1.52003632 -0.00992981 2.30308533 -0.01504517 C4.8070467 -0.02960097 7.31094475 -0.0364572 9.81494141 -0.04199219 C11.56222535 -0.04774836 13.30950928 -0.05350603 15.05679321 -0.05926514 C18.71673882 -0.06975591 22.37666258 -0.07561138 26.03662109 -0.07910156 C30.71610215 -0.08458712 35.39529238 -0.10862454 40.07468224 -0.13707352 C43.6830224 -0.15573563 47.29129293 -0.16090736 50.89967728 -0.16243744 C52.62438169 -0.16545561 54.34908512 -0.17345584 56.07374191 -0.18662262 C58.49079038 -0.20376087 60.90713345 -0.20178437 63.32421875 -0.1953125 C64.02990494 -0.20452728 64.73559113 -0.21374207 65.46266174 -0.22323608 C71.82763715 -0.17010054 76.31820836 1.40709233 81.10400391 5.66113281 C85.14132348 10.27521233 85.58895762 13.28983876 85.58203125 19.20922852 C85.58874847 20.02908234 85.5954657 20.84893616 85.60238647 21.69363403 C85.62140759 24.40812213 85.62529296 27.12236344 85.62744141 29.83691406 C85.6338673 31.72397463 85.6405955 33.61103419 85.64761353 35.49809265 C85.65959716 39.45667836 85.66329332 43.41517673 85.66210938 47.3737793 C85.66190631 52.44138761 85.68919035 57.50843431 85.72365379 62.57590961 C85.74591612 66.47503724 85.74994709 70.37402967 85.74888992 74.27321434 C85.75124758 76.14109416 85.7600804 78.00897761 85.77555466 79.87679482 C85.79519794 82.4932113 85.78938311 85.10841663 85.77734375 87.72485352 C85.78858276 88.4933815 85.79982178 89.26190948 85.81140137 90.0537262 C85.74141814 96.05279275 83.79411276 99.52713699 79.72900391 103.80566406 C74.38435297 108.14819295 70.40806624 108.31174799 63.6965332 108.32226562 C62.93666107 108.32723053 62.17678894 108.33219543 61.39389038 108.33731079 C58.88449186 108.35189416 56.37515656 108.35872812 53.86572266 108.36425781 C52.11700947 108.37001254 50.3682963 108.37577023 48.61958313 108.38153076 C44.95366116 108.39202995 41.28776105 108.39787965 37.62182617 108.40136719 C32.93446933 108.40684876 28.24740343 108.43087412 23.56013775 108.45933914 C19.94750638 108.4780033 16.33494456 108.48317314 12.72226906 108.48470306 C10.99477359 108.48772174 9.26727911 108.49572366 7.53983116 108.50888824 C5.11788446 108.52602764 2.69664168 108.5240495 0.2746582 108.51757812 C-0.43259903 108.52679291 -1.13985626 108.53600769 -1.86854553 108.54550171 C-8.18409679 108.49289273 -12.62852788 106.8713289 -17.52099609 102.84863281 C-21.65749571 97.76664757 -22.0069851 92.52465956 -21.99902344 86.17138672 C-22.00574066 85.39332169 -22.01245789 84.61525665 -22.01937866 83.81361389 C-22.03829479 81.25490847 -22.0422795 78.6964662 -22.04443359 76.13769531 C-22.0508656 74.34939468 -22.05759426 72.56109509 -22.06460571 70.77279663 C-22.07656224 67.02884482 -22.08028817 63.28498517 -22.07910156 59.54101562 C-22.07889838 54.75729098 -22.10620652 49.97416047 -22.14064598 45.19057655 C-22.16294573 41.49811112 -22.16693817 37.80578804 -22.16588211 34.11326218 C-22.1682332 32.35030443 -22.1770289 30.58734246 -22.19254684 28.82445145 C-22.21227121 26.35244027 -22.20634453 23.88170219 -22.19433594 21.40966797 C-22.20557495 20.69044662 -22.21681396 19.97122528 -22.22839355 19.23020935 C-22.14769623 12.65173014 -19.93575418 7.38839089 -15.27099609 2.72363281 C-10.48855159 -0.19249189 -5.46750384 0.00861153 0 0 Z " fill="#3686FD" transform="translate(591.70849609375,531.8388671875)"/>
<path d="M0 0 C1.14221764 -0.00503792 1.14221764 -0.00503792 2.30751038 -0.01017761 C4.82172279 -0.01966682 7.33586846 -0.02162971 9.85009766 -0.02270508 C11.60120674 -0.02591911 13.35231555 -0.02928329 15.10342407 -0.03279114 C18.77354556 -0.03877735 22.44364351 -0.04063156 26.11376953 -0.04003906 C30.81012797 -0.03993748 35.5063351 -0.05358815 40.2026577 -0.07081127 C43.81953623 -0.08194515 47.43637834 -0.08395784 51.05327225 -0.08342934 C52.78437445 -0.08460742 54.51547766 -0.08901953 56.24656296 -0.0967617 C58.67099266 -0.10658946 61.09509598 -0.10367261 63.51953125 -0.09765625 C64.23038376 -0.10327576 64.94123627 -0.10889526 65.67362976 -0.11468506 C71.35372526 -0.07897521 75.62991769 0.71332213 80.07666016 4.33276367 C84.75129386 10.01812899 85.83825932 15.20447436 85.82495117 22.43212891 C85.83502701 23.22984711 85.84510284 24.02756531 85.85548401 24.84945679 C85.88381474 27.46773562 85.88983246 30.08543517 85.89306641 32.70385742 C85.90271624 34.53557059 85.91280936 36.36728147 85.92332458 38.19898987 C85.94124751 42.03115193 85.94684941 45.86311151 85.94506836 49.6953125 C85.94476335 54.59252226 85.98575275 59.48842846 86.03738499 64.38532925 C86.07082621 68.16618249 86.07682363 71.94672285 86.07523918 75.72770882 C86.07876608 77.53255783 86.09196146 79.33741608 86.11523628 81.14211845 C86.31381847 98.12626448 86.31381847 98.12626448 81.16563416 103.75941467 C76.18026155 107.64856455 72.49290219 108.58665157 66.20581055 108.54931641 C65.39541824 108.55617966 64.58502594 108.56304291 63.75007629 108.57011414 C61.07881 108.58837283 58.40813155 108.58454599 55.73681641 108.57885742 C53.87503366 108.58341973 52.01325261 108.58872545 50.151474 108.59474182 C46.2518733 108.60367114 42.35247742 108.60125191 38.45288086 108.59130859 C33.46152292 108.57982018 28.47087257 108.60002928 23.47960758 108.62922573 C19.63536608 108.64759338 15.79129396 108.64729413 11.94701958 108.64158821 C10.10706019 108.64143506 8.26708928 108.64747428 6.42717171 108.65987968 C3.85163426 108.67479843 1.2774016 108.66410676 -1.2980957 108.64697266 C-2.43214844 108.66147461 -2.43214844 108.66147461 -3.58911133 108.67626953 C-8.74185405 108.60467871 -11.62854758 107.3677501 -15.61083984 104.14526367 C-20.73847289 98.59032787 -21.91107711 93.76945069 -21.88549805 86.3449707 C-21.89060898 85.57519897 -21.89571991 84.80542725 -21.90098572 84.0123291 C-21.91484878 81.47583164 -21.91392729 78.93960694 -21.91162109 76.40307617 C-21.91551014 74.63337097 -21.91984524 72.86366669 -21.92460632 71.09396362 C-21.93206169 67.38691175 -21.93178243 63.67995513 -21.92651367 59.97290039 C-21.92072322 55.23286054 -21.93764302 50.49321196 -21.96085835 45.75323677 C-21.97562341 42.09855893 -21.97646356 38.44397469 -21.97334862 34.78927231 C-21.97386054 33.04224753 -21.97907405 31.29521733 -21.98916054 29.54822159 C-22.00156015 27.10000792 -21.99471235 24.65254819 -21.9831543 22.2043457 C-21.99079803 21.48930878 -21.99844177 20.77427185 -22.00631714 20.03756714 C-21.94685874 14.31129261 -20.71325907 9.5940211 -16.92724609 5.18432617 C-16.34845703 4.71768555 -15.76966797 4.25104492 -15.17333984 3.77026367 C-14.30902344 3.04709961 -14.30902344 3.04709961 -13.42724609 2.30932617 C-9.29624934 -0.3380653 -4.75761798 -0.00301592 0 0 Z " fill="#3686FD" transform="translate(759.61083984375,704.854736328125)"/>
<path d="M0 0 C0.75987213 -0.0049649 1.51974426 -0.00992981 2.30264282 -0.01504517 C4.81204134 -0.02962853 7.32137664 -0.0364625 9.83081055 -0.04199219 C11.57952373 -0.04774691 13.32823691 -0.05350461 15.07695007 -0.05926514 C18.74287204 -0.06976433 22.40877215 -0.07561403 26.07470703 -0.07910156 C30.76206387 -0.08458314 35.44912978 -0.10860849 40.13639545 -0.13707352 C43.74902682 -0.15573767 47.36158864 -0.16090751 50.97426414 -0.16243744 C52.70175962 -0.16545611 54.42925409 -0.17345803 56.15670204 -0.18662262 C58.57864875 -0.20376201 60.99989152 -0.20178387 63.421875 -0.1953125 C64.12913223 -0.20452728 64.83638947 -0.21374207 65.56507874 -0.22323608 C71.86434069 -0.17076279 76.28985446 1.46899294 81.2175293 5.41113281 C85.44671756 10.72782662 85.70712228 16.77828579 85.72729492 23.35620117 C85.74218964 24.53814812 85.74218964 24.53814812 85.75738525 25.74397278 C85.7864031 28.3296772 85.80019122 30.91513663 85.8112793 33.50097656 C85.81976143 34.83337466 85.81976143 34.83337466 85.82841492 36.1926899 C85.8583027 40.88978372 85.87682418 45.58675612 85.88549805 50.28393555 C85.89647814 55.12056546 85.94458037 59.95607234 86.00144196 64.79234982 C86.03878328 68.52685252 86.04911032 72.26108637 86.0521698 75.99575996 C86.05820015 77.7782972 86.07418068 79.56083098 86.10054016 81.34318352 C86.32986792 98.03542295 86.32986792 98.03542295 81.47570801 103.76759338 C75.84551826 107.55663674 70.06393396 108.60681466 63.34008789 108.53344727 C62.19699409 108.53892326 62.19699409 108.53892326 61.0308075 108.54450989 C58.53812644 108.5525469 56.0461095 108.53906561 53.5534668 108.52441406 C51.80807496 108.52389474 50.06268253 108.52441524 48.31729126 108.52592468 C44.67099196 108.52583527 41.02491521 108.51546796 37.37866211 108.49731445 C32.71377457 108.47459469 28.04921075 108.4740927 23.38428307 108.4808321 C19.78454733 108.48417864 16.18488492 108.47752963 12.58516312 108.46770287 C10.86523447 108.46386494 9.14529764 108.46269679 7.42536545 108.46428871 C5.02048021 108.46466103 2.61600504 108.45199398 0.21118164 108.43579102 C-0.49338669 108.43826843 -1.19795502 108.44074585 -1.9238739 108.44329834 C-7.57862936 108.38272597 -11.85562956 107.57687561 -16.2824707 103.97363281 C-20.89254533 98.36678529 -22.04399555 93.26613943 -21.9831543 86.13378906 C-21.98841125 85.36372528 -21.99366821 84.5936615 -21.99908447 83.80026245 C-22.01220421 81.27450812 -22.00357524 78.74939269 -21.9934082 76.22363281 C-21.99543125 74.45678589 -21.99834461 72.68993978 -22.00210571 70.9230957 C-22.00651819 67.22794613 -22.00013279 63.53301475 -21.98608398 59.83789062 C-21.96899271 55.11357756 -21.97883968 50.38977589 -21.99680138 45.66548157 C-22.00766837 42.01937035 -22.00417952 38.37337935 -21.996418 34.7272644 C-21.99442405 32.98582905 -21.99684685 31.2443826 -22.00385666 29.50296021 C-22.01151937 27.06450702 -21.99980036 24.62686938 -21.9831543 22.18847656 C-21.98922699 21.47658173 -21.99529968 20.76468689 -22.0015564 20.03121948 C-21.92972552 14.31972411 -20.68758038 9.59846474 -16.91137695 5.20019531 C-16.33258789 4.73355469 -15.75379883 4.26691406 -15.1574707 3.78613281 C-14.2931543 3.06296875 -14.2931543 3.06296875 -13.41137695 2.32519531 C-9.2881421 -0.31722187 -4.74974531 0.00744332 0 0 Z " fill="#3686FD" transform="translate(591.594970703125,704.8388671875)"/>
<path d="M0 0 C0.75987213 -0.0049649 1.51974426 -0.00992981 2.30264282 -0.01504517 C4.81204134 -0.02962853 7.32137664 -0.0364625 9.83081055 -0.04199219 C11.57952373 -0.04774691 13.32823691 -0.05350461 15.07695007 -0.05926514 C18.74287204 -0.06976433 22.40877215 -0.07561403 26.07470703 -0.07910156 C30.76206387 -0.08458314 35.44912978 -0.10860849 40.13639545 -0.13707352 C43.74902682 -0.15573767 47.36158864 -0.16090751 50.97426414 -0.16243744 C52.70175962 -0.16545611 54.42925409 -0.17345803 56.15670204 -0.18662262 C58.57864875 -0.20376201 60.99989152 -0.20178387 63.421875 -0.1953125 C64.12913223 -0.20452728 64.83638947 -0.21374207 65.56507874 -0.22323608 C71.27014082 -0.17571252 75.97409912 1.07401945 80.3659668 4.84472656 C81.06592773 5.71291016 81.06592773 5.71291016 81.7800293 6.59863281 C82.26213867 7.17484375 82.74424805 7.75105469 83.2409668 8.34472656 C85.8965331 12.48847936 85.55876366 17.05943373 85.56616211 21.83203125 C85.57360947 22.98406036 85.57360947 22.98406036 85.58120728 24.15936279 C85.59579352 26.69642031 85.60262557 29.23341527 85.6081543 31.77050781 C85.61390938 33.53924561 85.61966707 35.30798341 85.62542725 37.07672119 C85.63592767 40.78552541 85.64177637 44.49430801 85.64526367 48.203125 C85.65074138 52.94194825 85.67475793 57.68048317 85.70323563 62.41921616 C85.72191512 66.0739219 85.72707046 69.72855898 85.72859955 73.38330841 C85.73161545 75.1295148 85.73960789 76.8757203 85.75278473 78.62187958 C85.76995411 81.07235758 85.76793858 83.52214152 85.76147461 85.97265625 C85.77068939 86.68566895 85.77990417 87.39868164 85.78939819 88.13330078 C85.73848609 94.33463439 84.5156483 99.99347006 80.0925293 104.53613281 C74.67718941 107.81052437 69.62692595 108.4594473 63.39941406 108.45166016 C62.61974274 108.45837738 61.84007141 108.4650946 61.03677368 108.47201538 C58.47326187 108.49092952 55.91001268 108.49491593 53.34643555 108.49707031 C51.55573928 108.5035018 49.76504406 108.51023042 47.97434998 108.51724243 C44.22620202 108.52919797 40.47814613 108.53292493 36.72998047 108.53173828 C31.93719008 108.53153496 27.14499172 108.55885876 22.35234165 108.5932827 C18.65562753 108.6155627 14.9590558 108.61957552 11.26228142 108.61851883 C9.49570611 108.62087229 7.72912673 108.62968144 5.96261787 108.64518356 C3.48800715 108.66487051 1.01467214 108.65899612 -1.45996094 108.64697266 C-2.18277756 108.65821167 -2.90559418 108.66945068 -3.65031433 108.68103027 C-9.14419682 108.61350181 -12.17465255 107.19782864 -16.5949707 104.16113281 C-21.25428173 98.2756873 -21.7448014 93.78103081 -21.75610352 86.47436523 C-21.76106842 85.70473953 -21.76603333 84.93511383 -21.77114868 84.14216614 C-21.78573328 81.60030212 -21.79256621 79.05850052 -21.7980957 76.51660156 C-21.80385032 74.74546813 -21.80960801 72.97433471 -21.81536865 71.20320129 C-21.82586818 67.49020091 -21.83171767 63.77722212 -21.83520508 60.06420898 C-21.84068681 55.31631962 -21.86471236 50.56871745 -21.89317703 45.82091808 C-21.91183981 42.16196368 -21.91701095 38.50307795 -21.91854095 34.84407997 C-21.92155992 33.09425601 -21.92956285 31.34443304 -21.94272614 29.59465599 C-21.95986264 27.14157902 -21.95788806 24.68919722 -21.95141602 22.23608398 C-21.9606308 21.51947601 -21.96984558 20.80286804 -21.9793396 20.06454468 C-21.93215471 14.32885028 -20.70347483 9.61697753 -16.91137695 5.20019531 C-16.33258789 4.73355469 -15.75379883 4.26691406 -15.1574707 3.78613281 C-14.2931543 3.06296875 -14.2931543 3.06296875 -13.41137695 2.32519531 C-9.2881421 -0.31722187 -4.74974531 0.00744332 0 0 Z " fill="#3687FD" transform="translate(427.594970703125,704.8388671875)"/>
<path d="M0 0 C1.1376178 -0.01007584 1.1376178 -0.01007584 2.29821777 -0.02035522 C4.79743054 -0.03930241 7.29637424 -0.04325788 9.7956543 -0.04541016 C11.54054371 -0.05184089 13.28543204 -0.05856946 15.03031921 -0.06558228 C18.68609109 -0.07754721 22.34176853 -0.08126396 25.99755859 -0.08007812 C30.66809703 -0.0798751 35.33802586 -0.10716329 40.00841999 -0.14162254 C43.612531 -0.16392837 47.21649622 -0.16791452 50.82066917 -0.16685867 C52.54176113 -0.16920962 54.26285741 -0.17800451 55.983881 -0.19352341 C58.39853439 -0.2132566 60.81188534 -0.20731742 63.2265625 -0.1953125 C63.92865341 -0.20655151 64.63074432 -0.21779053 65.35411072 -0.22937012 C71.27721611 -0.15504018 76.58646514 1.65911323 80.87712574 5.80864906 C85.0516143 10.71298699 85.46918713 13.95594991 85.51611328 20.19335938 C85.52589706 21.00985458 85.53568085 21.82634979 85.54576111 22.66758728 C85.57574583 25.37782151 85.597113 28.08800611 85.6159668 30.79833984 C85.62253862 31.72428829 85.62911045 32.65023674 85.63588142 33.60424423 C85.66849392 38.50877098 85.69293605 43.41327587 85.71240234 48.31787109 C85.73019282 52.37255624 85.76497374 56.42654294 85.81494141 60.48095703 C85.8752332 65.37870751 85.90589108 70.27581195 85.91557503 75.17391586 C85.92411854 77.03740831 85.94290945 78.90088402 85.97231865 80.76416397 C86.2349744 98.3575823 86.2349744 98.3575823 81.08631897 103.92623901 C76.06627441 107.77615267 72.3636088 108.74044427 66.06396484 108.7421875 C65.24703156 108.75386963 64.43009827 108.76555176 63.58840942 108.77758789 C60.89435004 108.81111374 58.20084128 108.82190468 55.5065918 108.82958984 C53.62718006 108.84177559 51.74777026 108.85426177 49.86836243 108.86703491 C45.93010098 108.88949696 41.99203283 108.89906347 38.05371094 108.90136719 C33.01953414 108.90664708 27.98697599 108.95796397 22.95323467 109.02088356 C19.07114912 109.06184946 15.18945123 109.07101013 11.30716896 109.07148361 C9.45205652 109.07685321 7.59693915 109.0936543 5.74204063 109.12233353 C-10.55704344 109.35331365 -10.55704344 109.35331365 -15.70507812 105.17871094 C-20.78206473 99.84615061 -22.14194477 93.42151837 -22.09667969 86.27905273 C-22.10354294 85.51059525 -22.11040619 84.74213776 -22.11747742 83.95039368 C-22.1356643 81.42946493 -22.1319197 78.90916338 -22.1262207 76.38818359 C-22.13078641 74.62373148 -22.13609313 72.85928115 -22.1421051 71.09483337 C-22.15102027 67.40388751 -22.1486313 63.7131582 -22.13867188 60.0222168 C-22.12718416 55.30686454 -22.14739858 50.59226138 -22.17658901 45.87700748 C-22.19498983 42.23513592 -22.19465084 38.59344259 -22.18895149 34.95153618 C-22.18879875 33.21370836 -22.19480376 31.4758681 -22.20724297 29.73808479 C-22.22222529 27.30205246 -22.2114243 24.86738785 -22.19433594 22.43139648 C-22.20400391 21.72309692 -22.21367188 21.01479736 -22.22363281 20.28503418 C-22.12782402 13.7184773 -19.92789572 8.46848153 -15.25512695 3.91552734 C-10.19020545 0.7036259 -5.93153505 -0.00759172 0 0 Z " fill="#3686FD" transform="translate(759.692626953125,877.70947265625)"/>
<path d="M0 0 C0.80674164 -0.00978378 1.61348328 -0.01956757 2.44467163 -0.02964783 C5.12244005 -0.05963162 7.80015823 -0.08099955 10.47802734 -0.09985352 C11.39294323 -0.10642534 12.30785912 -0.11299717 13.25049973 -0.11976814 C18.09667159 -0.15238037 22.94282134 -0.17682246 27.7890625 -0.19628906 C31.79524899 -0.21407881 35.8007285 -0.2488585 39.80664062 -0.29882812 C44.64603759 -0.35912505 49.48478065 -0.38977848 54.32453537 -0.39946175 C56.16570005 -0.40800446 58.00684783 -0.42679341 59.84779739 -0.45620537 C77.22774449 -0.7188442 77.22774449 -0.7188442 82.81698608 4.42979431 C86.68770568 9.44867729 87.63307615 13.14382034 87.60888672 19.45214844 C87.61735626 20.26908173 87.62582581 21.08601501 87.634552 21.92770386 C87.65790352 24.62180256 87.65894444 27.31532933 87.65771484 30.00952148 C87.66481871 31.88893358 87.67251804 33.76834352 87.68078613 35.64775085 C87.69422756 39.58602933 87.69580175 43.52410736 87.68994141 47.46240234 C87.68405264 52.49627902 87.71460422 57.52918878 87.75505829 62.56287861 C87.78097862 66.44495274 87.78380864 70.32679559 87.78016663 74.20894432 C87.78185453 76.06401177 87.79146525 77.91909027 87.80931091 79.77407265 C87.83158185 82.37574467 87.82175804 84.97547996 87.80419922 87.57714844 C87.81746246 88.33534378 87.83072571 89.09353912 87.84439087 89.87471008 C87.75442166 95.64567322 85.9342148 99.79838204 82.18896484 104.20874023 C74.53865697 109.95966973 64.41049038 108.78987676 55.31005859 108.73999023 C53.57088505 108.7426893 51.83171298 108.74657517 50.09254456 108.75158691 C46.46055633 108.75746092 42.82896349 108.74898614 39.19702148 108.73022461 C34.5579178 108.70741903 29.91973914 108.72058132 25.28066921 108.74451447 C21.69368097 108.75901494 18.10690965 108.75434736 14.51991463 108.7440033 C12.81000723 108.74134862 11.10007968 108.74456114 9.39019585 108.75392151 C-7.19060914 108.82479757 -7.19060914 108.82479757 -13.81103516 104.20874023 C-19.0698852 98.8114994 -20.1107011 93.66118748 -20.1015625 86.31665039 C-20.10827972 85.53712509 -20.11499695 84.75759979 -20.12191772 83.95445251 C-20.14086685 81.38550386 -20.14482029 78.81681687 -20.14697266 76.24780273 C-20.15340257 74.45567722 -20.16013107 72.66355276 -20.16714478 70.87142944 C-20.1791097 67.11730516 -20.18282639 63.36327286 -20.18164062 59.60913086 C-20.18143744 54.80846473 -20.20874213 50.00839064 -20.24318504 45.20786476 C-20.26546743 41.50685947 -20.26947776 37.80599637 -20.26842117 34.10493088 C-20.27077501 32.33556452 -20.27958631 30.56619411 -20.29508591 28.79689407 C-20.31477414 26.3173855 -20.30889755 23.83915005 -20.296875 21.35961914 C-20.30811401 20.63523148 -20.31935303 19.91084381 -20.33093262 19.164505 C-20.25643854 13.09109146 -18.3297182 8.89613889 -14.17822266 4.46655273 C-9.12177034 0.62788475 -6.2357814 0.04748681 0 0 Z " fill="#3686FD" transform="translate(757.81103515625,531.791259765625)"/>
<path d="M0 0 C1.12561592 -0.00744736 1.12561592 -0.00744736 2.27397156 -0.01504517 C4.74003029 -0.02957141 7.20602478 -0.03645152 9.67211914 -0.04199219 C10.9415697 -0.04623325 10.9415697 -0.04623325 12.23666573 -0.05056 C16.71214227 -0.06551137 21.1875869 -0.07476735 25.66308594 -0.07910156 C30.27415873 -0.08459106 34.88493696 -0.10864067 39.49591732 -0.13707352 C43.05364325 -0.15573495 46.61129856 -0.16090728 50.16906929 -0.16243744 C51.86865416 -0.1654548 53.56823806 -0.17345223 55.26777458 -0.18662262 C57.64879464 -0.20376267 60.02909878 -0.20178419 62.41015625 -0.1953125 C63.10492065 -0.20452728 63.79968506 -0.21374207 64.51550293 -0.22323608 C70.7851301 -0.17011138 75.22697594 1.48149771 80.08227539 5.47363281 C84.20346994 10.53681469 84.56635483 15.74399261 84.54443359 22.07495117 C84.54954453 22.84486893 84.55465546 23.61478668 84.55992126 24.40803528 C84.5737584 26.939096 84.57286503 29.46988264 84.57055664 32.00097656 C84.57444665 33.76925252 84.57878194 35.53752756 84.58354187 37.30580139 C84.59099132 41.00687696 84.59072195 44.70785712 84.58544922 48.40893555 C84.57965461 53.14109969 84.59659152 57.87287243 84.61979389 62.60497189 C84.63455736 66.25535854 84.63539941 69.90565148 84.63228416 73.5560627 C84.63279601 75.30029641 84.63800793 77.04453555 84.64809608 78.78874016 C84.66049488 81.23205565 84.65364878 83.67461565 84.64208984 86.11791992 C84.64973358 86.8313858 84.65737732 87.54485168 84.66525269 88.27993774 C84.59934751 94.61350519 82.99258065 99.06582912 78.95727539 103.97363281 C73.92145876 108.07255332 68.7468545 108.45789076 62.44775391 108.43579102 C61.68758972 108.44090195 60.92742554 108.44601288 60.14422607 108.45127869 C57.6456299 108.46511399 55.14731143 108.46422259 52.64868164 108.46191406 C50.90282591 108.46580417 49.15697113 108.47013949 47.41111755 108.47489929 C43.75712003 108.48234835 40.10321916 108.48207966 36.44921875 108.47680664 C31.77758679 108.47101208 27.10635132 108.48794898 22.43478489 108.51115131 C18.83072108 108.52591584 15.22675219 108.52675669 11.6226635 108.52364159 C9.90075838 108.52415338 8.17884776 108.5293643 6.45697212 108.53945351 C4.04478644 108.55185438 1.63336576 108.54500502 -0.77880859 108.53344727 C-1.48292374 108.541091 -2.18703888 108.54873474 -2.91249084 108.55661011 C-8.60277486 108.49665031 -13.31074899 107.23841168 -17.69116211 103.47753906 C-18.15780273 102.89875 -18.62444336 102.31996094 -19.10522461 101.72363281 C-19.58733398 101.14742187 -20.06944336 100.57121094 -20.56616211 99.97753906 C-23.2403219 95.80477294 -22.88402001 91.18748363 -22.89135742 86.38256836 C-22.89632233 85.60318909 -22.90128723 84.82380981 -22.90640259 84.02081299 C-22.92098838 81.44648347 -22.92782031 78.87221558 -22.93334961 76.29785156 C-22.93910411 74.50429788 -22.94486181 72.71074421 -22.95062256 70.91719055 C-22.96112242 67.15711176 -22.96697169 63.39705428 -22.97045898 59.63696289 C-22.97594087 54.82854096 -22.99996662 50.02040259 -23.02843094 45.21206951 C-23.04709237 41.50679206 -23.05226479 37.80158244 -23.05379486 34.09626198 C-23.05681412 32.32410952 -23.06481802 30.55195806 -23.07798004 28.77985191 C-23.09511373 26.29564462 -23.09314263 23.81212394 -23.08666992 21.32788086 C-23.0958847 20.60192215 -23.10509949 19.87596344 -23.11459351 19.12800598 C-23.06897242 13.51347777 -21.89306812 8.8631726 -18.33569336 4.41894531 C-12.6649248 -0.11142076 -6.9934163 0.01121955 0 0 Z " fill="#3686FD" transform="translate(428.730224609375,531.8388671875)"/>
<path d="M0 0 C11.20235598 5.65496159 17.69881552 13.12755546 22.28515625 24.8125 C25.68450259 38.40988537 24.28515625 52.79663597 24.28515625 66.8125 C-3.10484375 66.8125 -30.49484375 66.8125 -58.71484375 66.8125 C-58.71484375 21.95288877 -58.71484375 21.95288877 -45.90625 7.81640625 C-33.92422595 -3.76704735 -15.12248687 -6.61472807 0 0 Z " fill="#FAFBFD" transform="translate(376.71484375,168.1875)"/>
<path d="M0 0 C8.18866304 7.62952525 11.07807662 15.60268719 14.0234375 26.40234375 C14.0234375 37.62234375 14.0234375 48.84234375 14.0234375 60.40234375 C-13.3665625 60.40234375 -40.7565625 60.40234375 -68.9765625 60.40234375 C-68.9765625 15.17038499 -68.9765625 15.17038499 -56.9609375 2.1328125 C-40.10727905 -12.56437391 -17.56802665 -14.20024289 0 0 Z " fill="#FAFBFD" transform="translate(647.9765625,174.59765625)"/>
<path d="M0 0 C7.9968655 6.3551249 11.25901429 14.2549576 15.01953125 23.65625 C15.01953125 36.19625 15.01953125 48.73625 15.01953125 61.65625 C-12.04046875 61.65625 -39.10046875 61.65625 -66.98046875 61.65625 C-66.98046875 17.66042537 -66.98046875 17.66042537 -56.98046875 5.65625 C-56.19349609 4.68365234 -56.19349609 4.68365234 -55.390625 3.69140625 C-40.83611816 -12.57120897 -16.92520871 -11.4837708 0 0 Z " fill="#FBFCFD" transform="translate(913.98046875,173.34375)"/>
<path d="M0 0 C0.99 0.33 1.98 0.66 3 1 C2.0479279 2.00596297 1.08812654 3.00461563 0.125 4 C-0.40867187 4.556875 -0.94234375 5.11375 -1.4921875 5.6875 C-3 7 -3 7 -5 7 C-5.66 8.32 -6.32 9.64 -7 11 C-7 7.22089522 -6.00296038 6.53893899 -3.5 3.8125 C-2.8503125 3.09707031 -2.200625 2.38164062 -1.53125 1.64453125 C-1.0259375 1.10183594 -0.520625 0.55914062 0 0 Z " fill="#4179FB" transform="translate(305,153)"/>
<path d="M0 0 C0.66 0.33 1.32 0.66 2 1 C0.88266271 2.50571657 -0.24410035 4.00444292 -1.375 5.5 C-2.00148438 6.3353125 -2.62796875 7.170625 -3.2734375 8.03125 C-3.84320312 8.6809375 -4.41296875 9.330625 -5 10 C-5.66 10 -6.32 10 -7 10 C-5.6062718 5.56541027 -3.39417765 3.12621626 0 0 Z " fill="#428AFC" transform="translate(578,880)"/>
<path d="M0 0 C0.99 0.33 1.98 0.66 3 1 C0.87219421 3.34058637 -1.11562221 4.70700306 -4 6 C-4 5.01 -4 4.02 -4 3 C-2.1875 1.25 -2.1875 1.25 0 0 Z " fill="#418CFD" transform="translate(914,706)"/>
<path d="M0 0 C0.33 0.99 0.66 1.98 1 3 C-0.8125 5.6875 -0.8125 5.6875 -3 8 C-3.66 8 -4.32 8 -5 8 C-5.33 8.99 -5.66 9.98 -6 11 C-5.55530671 5.96014269 -3.28656638 3.62365012 0 0 Z " fill="#448CFD" transform="translate(745,535)"/>
<path d="M0 0 C4.67692308 1.47692308 4.67692308 1.47692308 6.3125 4.125 C6.539375 4.74375 6.76625 5.3625 7 6 C4 6 4 6 1.8125 4.125 C0 2 0 2 0 0 Z " fill="#4D94FD" transform="translate(503,534)"/>
<path d="M0 0 C-1 3 -1 3 -3 4 C-4.99960012 4.039992 -7.00047242 4.04346799 -9 4 C-3.7826087 0 -3.7826087 0 0 0 Z " fill="#407BFC" transform="translate(864,134)"/>
</svg>
