<?xml version="1.0" encoding="UTF-8"?>
<svg version="1.1" xmlns="http://www.w3.org/2000/svg" width="1254" height="1254">
<path d="M0 0 C0.76820068 0.44021484 1.53640137 0.88042969 2.32788086 1.33398438 C3.20178467 1.82632568 4.07568848 2.31866699 4.97607422 2.82592773 C5.90556885 3.35452393 6.83506348 3.88312012 7.79272461 4.42773438 C22.87355379 12.81543581 38.17075808 19.98590405 54.73022461 24.92773438 C55.38039551 25.13350098 56.03056641 25.33926758 56.70043945 25.55126953 C76.56567189 31.83725435 96.58029528 34.29707598 117.35522461 34.30273438 C118.10350525 34.30463776 118.85178589 34.30654114 119.6227417 34.3085022 C130.14067496 34.30546626 140.32352217 33.4722533 150.73022461 31.92773438 C151.62161133 31.79689453 152.51299805 31.66605469 153.43139648 31.53125 C155.51566854 31.20934776 157.59179022 30.8618024 159.66772461 30.49023438 C160.3824292 30.36245605 161.09713379 30.23467773 161.83349609 30.10302734 C166.14608041 29.30066318 170.23752248 28.32000984 174.34350586 26.78710938 C176.86181267 25.88035406 179.41200927 25.13888911 181.98168945 24.39306641 C199.35700245 19.26070545 217.79384565 11.86301212 232.7746582 1.515625 C237.95208552 -2.04147977 237.95208552 -2.04147977 241.59350586 -2.18554688 C246.21635479 -0.54480971 250.54692492 1.52018795 254.91772461 3.74023438 C255.88516602 4.2287085 256.85260742 4.71718262 257.84936523 5.22045898 C267.53306333 10.19926681 276.70512524 15.84674102 285.73022461 21.92773438 C286.68034424 22.56727051 286.68034424 22.56727051 287.6496582 23.21972656 C300.98073997 32.28443085 313.44305885 42.54871707 325.17944336 53.58789062 C327.68997058 55.94805301 327.68997058 55.94805301 330.36303711 58.00976562 C332.50529382 59.74548847 334.16680558 61.43722809 335.91772461 63.55273438 C338.67168716 66.784608 341.56535276 69.7757702 344.60522461 72.74023438 C349.7313123 77.83553475 354.32836779 83.20114052 358.73022461 88.92773438 C359.51187988 89.94335449 359.51187988 89.94335449 360.30932617 90.97949219 C371.58964835 105.7386116 381.1630098 121.09977276 390.10522461 137.36523438 C390.5932959 138.25251221 391.08136719 139.13979004 391.58422852 140.05395508 C396.30973604 148.77590575 400.42639684 157.63913158 403.64038086 167.02929688 C404.5552104 169.46228441 405.55882768 171.78400053 406.63647461 174.14648438 C410.37610277 182.47577399 412.99475677 191.22907492 415.73022461 199.92773438 C415.96386719 200.65621582 416.19750977 201.38469727 416.43823242 202.13525391 C421.16453996 217.16405126 423.1434908 232.86997872 425.49584961 248.40429688 C425.60603928 249.12876511 425.71622894 249.85323334 425.82975769 250.59965515 C427.03234012 258.67865707 427.8874309 266.62876871 427.93334961 274.80273438 C427.93904968 275.61210449 427.94474976 276.42147461 427.95062256 277.25537109 C427.95999354 278.95278649 427.96657469 280.65021943 427.97045898 282.34765625 C427.9802012 284.92154831 428.011314 287.49465259 428.04272461 290.06835938 C428.04925347 291.72981304 428.0545044 293.39127233 428.05834961 295.05273438 C428.07069641 295.80925293 428.08304321 296.56577148 428.09576416 297.34521484 C428.04956843 308.59837015 422.85249 318.70225778 415.35522461 326.92773438 C405.53128298 336.19137515 392.66813088 342.26036938 380.59350586 348.02441406 C378.67483075 348.95458937 376.78243317 349.9287711 374.88647461 350.90429688 C340.61489896 368.07955372 300.2686164 378.29161334 262.65600586 385.17382812 C259.96442191 385.69071937 257.39929345 386.25804588 254.76147461 386.95898438 C250.51474804 388.05102957 246.27362005 388.54810907 241.91772461 388.99023438 C236.24576124 389.54453282 236.24576124 389.54453282 230.73022461 390.92773438 C229.00227109 390.99576404 227.27187096 391.01269082 225.54272461 390.99023438 C224.64166992 390.98121094 223.74061523 390.9721875 222.81225586 390.96289062 C221.78165039 390.94548828 221.78165039 390.94548828 220.73022461 390.92773438 C220.73022461 391.58773438 220.73022461 392.24773437 220.73022461 392.92773438 C207.46603206 394.53447935 194.18618686 395.46961091 180.85131836 396.22998047 C180.17719406 396.26924149 179.50306976 396.3085025 178.80851746 396.34895325 C176.96395881 396.45590639 175.11919222 396.55925592 173.27441406 396.66235352 C170.8666188 396.84264376 168.46377007 397.10308938 166.072052 397.43424988 C161.61066973 397.99891535 157.20935921 398.08257675 152.71679688 398.08886719 C151.85180069 398.09383209 150.9868045 398.098797 150.09559631 398.10391235 C147.24593277 398.11845338 144.39632536 398.12533149 141.54663086 398.13085938 C140.55809553 398.13368675 139.5695602 398.13651413 138.55106926 398.13942719 C133.29348361 398.15440618 128.03592518 398.16363703 122.77832031 398.16796875 C118.49926013 398.17230995 114.22040652 398.18603182 109.94140625 398.20898438 C84.68980431 398.34173604 59.82149367 397.97997797 34.73022461 394.92773438 C34.06052832 394.84630188 33.39083202 394.76486938 32.7008419 394.68096924 C25.04575401 393.74621092 17.39481063 392.78081271 9.75756836 391.70898438 C9.01994766 391.60557739 8.28232697 391.50217041 7.52235413 391.39562988 C5.99949663 391.18133917 4.47674411 390.96630104 2.95410156 390.75048828 C1.41405018 390.53308861 -0.12632389 390.31796421 -1.66699219 390.10498047 C-3.94284819 389.7903284 -6.21769895 389.46914551 -8.49243164 389.14648438 C-9.17169205 389.05371216 -9.85095245 388.96093994 -10.55079651 388.86535645 C-14.92483927 388.23478303 -19.03889139 387.18825033 -23.26977539 385.92773438 C-24.82058074 385.57834897 -26.37647196 385.25033166 -27.93774414 384.95117188 C-28.79029785 384.78584961 -29.64285156 384.62052734 -30.52124023 384.45019531 C-31.42825684 384.2777832 -32.33527344 384.10537109 -33.26977539 383.92773438 C-58.99669352 379.00084747 -58.99669352 379.00084747 -68.51977539 375.82226562 C-71.35274244 374.90074651 -74.1846893 374.17995234 -77.08227539 373.49023438 C-86.92076442 371.08932989 -96.74926608 368.29615797 -105.91040039 363.93945312 C-108.90854916 362.6538231 -111.97032542 361.71856199 -115.08227539 360.74023438 C-124.82778727 357.607128 -134.03319985 353.31066793 -143.26977539 348.92773438 C-144.14456543 348.51297852 -145.01935547 348.09822266 -145.9206543 347.67089844 C-182.08389896 330.38557383 -182.08389896 330.38557383 -189.26977539 311.92773438 C-189.58817383 311.15558594 -189.90657227 310.3834375 -190.23461914 309.58789062 C-204.23993483 268.73367481 -184.28206125 207.83672362 -169.26977539 168.92773438 C-168.66262695 167.3421875 -168.66262695 167.3421875 -168.04321289 165.72460938 C-166.85171699 162.75802774 -165.58094509 159.84345704 -164.26977539 156.92773438 C-163.97941406 156.2707959 -163.68905273 155.61385742 -163.38989258 154.93701172 C-143.26055834 109.67129779 -111.21911433 68.5583319 -72.26977539 37.92773438 C-71.2655957 37.12851562 -70.26141602 36.32929687 -69.22680664 35.50585938 C-15.13125474 -7.14816294 -15.13125474 -7.14816294 0 0 Z " fill="#1E93F1" transform="translate(509.269775390625,614.072265625)"/>
<path d="M0 0 C2.45952302 0.00314672 4.91782303 -0.0203354 7.37719727 -0.0456543 C18.16840229 -0.08868267 28.2431516 1.09816276 38.79321289 3.31567383 C40.20582397 3.59133179 40.20582397 3.59133179 41.64697266 3.87255859 C49.41873365 5.40089653 57.0899308 7.00303456 64.34399414 10.26635742 C66.84805523 11.33916988 69.37139382 12.22213663 71.94946289 13.10083008 C77.59060947 15.14027452 82.67965945 17.73935734 87.85571289 20.75317383 C88.75692871 21.27540527 89.65814453 21.79763672 90.58666992 22.33569336 C105.20674684 30.95884321 118.18161224 40.93494727 130.27612305 52.8293457 C131.54967339 54.07707253 132.84657233 55.30090554 134.14868164 56.51879883 C152.48420835 73.9393791 167.49529853 100.09784872 173.97680664 124.42895508 C174.78658526 127.48425889 174.78658526 127.48425889 176.25805664 130.97973633 C178.17068229 135.98431176 179.02563467 141.11196231 179.91821289 146.37817383 C180.08708008 147.33272461 180.25594727 148.28727539 180.42993164 149.27075195 C180.89965813 151.95041214 181.36033163 154.62980907 181.79321289 157.31567383 C181.97263428 158.41186035 182.15205566 159.50804687 182.33691406 160.63745117 C182.82441911 164.56722705 182.95496384 168.42949855 182.96118164 172.38208008 C182.96451004 173.13802963 182.96783844 173.89397919 182.9712677 174.6728363 C182.97630454 176.26707355 182.97867703 177.86132122 182.97851562 179.45556641 C182.98068486 181.84727245 182.99882742 184.2385033 183.01782227 186.63012695 C183.05355405 196.03118349 182.48904509 205.03938064 180.79321289 214.31567383 C180.60654053 215.3445874 180.41986816 216.37350098 180.22753906 217.43359375 C171.07428781 264.82692651 144.89339604 310.13567132 104.73071289 337.87817383 C90.57743685 347.40654926 76.11406476 355.63521298 59.76635742 360.69116211 C58.39533496 361.12509869 57.03197289 361.5836963 55.67553711 362.0612793 C49.95509499 364.07068708 44.25333031 365.35622743 38.29321289 366.44067383 C37.40762695 366.60954102 36.52204102 366.7784082 35.60961914 366.95239258 C-7.51717998 374.99512898 -53.50274616 366.45355835 -89.94116211 341.62426758 C-100.01305489 334.50406586 -109.26908676 326.81296576 -118.20678711 318.31567383 C-118.88999023 317.69692383 -119.57319336 317.07817383 -120.27709961 316.44067383 C-136.28049375 301.44167681 -148.11525375 281.08963944 -157.20678711 261.31567383 C-157.51213379 260.65519043 -157.81748047 259.99470703 -158.13208008 259.31420898 C-178.03758851 215.56034982 -178.97790024 163.15254353 -162.39428711 118.19067383 C-153.1222066 94.11448162 -139.94700266 73.07303496 -122.20678711 54.31567383 C-121.41143555 53.45586914 -120.61608398 52.59606445 -119.79663086 51.71020508 C-108.53764746 39.94176542 -95.30539926 30.4022075 -81.20678711 22.31567383 C-80.36374023 21.82454102 -79.52069336 21.3334082 -78.65209961 20.82739258 C-74.27503067 18.32936838 -69.85847366 16.27115989 -65.20678711 14.31567383 C-64.07241211 13.83227539 -62.93803711 13.34887695 -61.76928711 12.85083008 C-53.02420342 9.23581193 -44.38475795 6.61016654 -35.20678711 4.31567383 C-33.62897461 3.8284082 -33.62897461 3.8284082 -32.01928711 3.33129883 C-21.33908748 0.48616368 -10.98453807 -0.0292632 0 0 Z " fill="#F7C193" transform="translate(622.206787109375,245.684326171875)"/>
<path d="M0 0 C2.08086972 1.40458706 4.02708963 2.83410103 6 4.375 C24.85229151 18.35643758 47.83365237 28.18252059 71 32 C71.83466797 32.16483887 72.66933594 32.32967773 73.52929688 32.49951172 C81.78020982 34.0482849 89.86925756 34.39869744 98.25 34.375 C98.94465363 34.37478851 99.63930725 34.37457703 100.35501099 34.37435913 C125.10171806 34.29973884 148.99325914 29.4604997 171 18 C171.72896484 17.62182129 172.45792969 17.24364258 173.20898438 16.85400391 C182.28359833 12.09578656 190.68731053 7.15374995 198.51953125 0.51953125 C201 -1 201 -1 203.36108398 -0.73876953 C208.00568015 0.56149395 212.04113618 2.99811149 216.25 5.3125 C217.22493408 5.84721924 218.19986816 6.38193848 219.2043457 6.93286133 C235.06698653 15.79441834 249.20700949 26.79772033 262.6875 38.9375 C263.48281128 39.64724976 263.48281128 39.64724976 264.29418945 40.37133789 C265.56936472 41.53874589 266.7902534 42.7649184 268 44 C268 44.66 268 45.32 268 46 C265.52683001 47.56409637 263.05268291 49.01348154 260.5 50.4375 C225.80762619 70.31436548 191.42590158 98.1826082 167 130 C165.95137115 131.29991634 164.90038566 132.59793349 163.84765625 133.89453125 C150.79699385 150.11393334 139.86381331 167.690756 130 186 C129.36553955 187.16257324 129.36553955 187.16257324 128.71826172 188.34863281 C121.97008757 200.68818938 121.97008757 200.68818938 116.7890625 213.73828125 C116.02613854 215.92507814 115.099134 217.84034355 114 219.875 C111.67704191 224.29317519 110.39218223 228.96818505 109.02734375 233.75390625 C108.12565823 236.60295821 107.01557463 239.24440864 105.81420898 241.97485352 C97.15346815 263.51633634 93.84834584 287.1213512 91 310 C57.20616526 310.29687786 22.56715713 309.7567184 -10.58007812 302.51171875 C-14.00628013 301.78721114 -17.45019205 301.17309634 -20.89599609 300.54980469 C-60.36224266 293.33733187 -113.94944216 279.62434146 -138.8515625 245.046875 C-142.8608954 237.90098915 -143.48021932 232.53411221 -143.375 224.375 C-143.36702393 223.2499707 -143.35904785 222.12494141 -143.35083008 220.96582031 C-143.20779464 212.18573794 -142.57153328 203.48452183 -141.6875 194.75 C-141.57003418 193.58645996 -141.45256836 192.42291992 -141.33154297 191.22412109 C-138.62694586 166.97946321 -131.78231483 141.45302805 -120.34375 119.8125 C-119.15147689 117.31704465 -118.14935391 114.83263616 -117.15625 112.25390625 C-115.1639517 107.2200946 -112.74117673 102.59918947 -110 97.9375 C-109.52578613 97.12603516 -109.05157227 96.31457031 -108.56298828 95.47851562 C-98.01814153 77.7209523 -85.19224465 61.94458223 -71 47 C-70.1028125 46.04867187 -69.205625 45.09734375 -68.28125 44.1171875 C-61.87175174 37.50032312 -55.01177691 31.8116408 -47.67724609 26.27587891 C-46.15056142 25.11453188 -44.64619449 23.92399316 -43.14453125 22.73046875 C-34.73401121 16.14677535 -25.6460244 10.72818305 -16.40478516 5.39648438 C-14.77684793 4.45112388 -13.16204523 3.4828392 -11.56005859 2.49414062 C-10.78098145 2.02685547 -10.0019043 1.55957031 -9.19921875 1.078125 C-8.51045654 0.6543457 -7.82169434 0.23056641 -7.11206055 -0.20605469 C-4.34651809 -1.24565058 -2.79283632 -0.86624544 0 0 Z " fill="#FDC62A" transform="translate(202,552)"/>
<path d="M0 0 C2.83984375 1.78515625 2.83984375 1.78515625 5.9375 4.0625 C41.26301071 29.28349417 84.56996528 39.33600807 127.55078125 32.69140625 C152.22046906 27.74629329 179.60570699 17.68755576 198.6640625 0.61328125 C201 -1 201 -1 203.2734375 -1.015625 C227.8485981 8.13844628 249.58611418 26.15419473 268.5625 43.8125 C269.20533936 44.41046387 269.84817871 45.00842773 270.51049805 45.62451172 C274.96788387 49.84717567 279.0162231 54.33188579 283 59 C283.79664063 59.90363281 284.59328125 60.80726563 285.4140625 61.73828125 C297.00572386 75.23457955 306.84777428 90.19860221 315 106 C315.64533691 107.24378418 315.64533691 107.24378418 316.30371094 108.51269531 C334.24266904 143.48666119 344.16554842 181.45332557 344.1875 220.8125 C344.19974609 221.98748047 344.21199219 223.16246094 344.22460938 224.37304688 C344.24665523 237.38745007 340.86158145 243.94504102 332.0625 253.375 C316.09315425 268.84116571 293.87527633 278.47717494 273.31982422 286.13427734 C271.15481379 286.94222588 269.00119682 287.77536196 266.84765625 288.61328125 C251.42857895 294.46973562 235.16603778 297.88837844 219 301 C218.06502686 301.18433594 217.13005371 301.36867188 216.16674805 301.55859375 C181.28401611 308.2969547 145.50091042 311.0282095 110 310 C109.91435791 309.34402832 109.82871582 308.68805664 109.74047852 308.01220703 C109.35153499 305.049303 108.95708727 302.08715747 108.5625 299.125 C108.42779297 298.09246094 108.29308594 297.05992187 108.15429688 295.99609375 C108.02216797 295.00996094 107.89003906 294.02382813 107.75390625 293.0078125 C107.57323608 291.64100342 107.57323608 291.64100342 107.38891602 290.24658203 C107.10637049 287.97266576 107.10637049 287.97266576 106 286 C105.69993258 284.2752551 105.43188954 282.54489128 105.1796875 280.8125 C104.09065696 274.06493926 102.44305104 267.52838262 100.65087891 260.93652344 C100.12602801 259.00378558 99.61121655 257.06857743 99.09765625 255.1328125 C96.19952095 244.35571622 93.03430278 233.93876182 88.27734375 223.83203125 C86.92936221 220.84338717 85.76909274 217.82217033 84.625 214.75 C71.47921787 180.13005203 50.38822395 147.727752 25.35546875 120.57421875 C23.43819373 118.47888834 21.58436115 116.35454125 19.75 114.1875 C11.89382998 105.15570358 3.16724737 96.68810426 -6 89 C-7.35544922 87.81083984 -7.35544922 87.81083984 -8.73828125 86.59765625 C-26.60013774 71.01524766 -46.59553114 57.98219873 -67 46 C-66.55959774 41.69606885 -63.82051713 39.57776747 -60.75 36.875 C-60.2135083 36.39490479 -59.6770166 35.91480957 -59.12426758 35.42016602 C-45.52097037 23.40355834 -30.49396821 13.49806906 -14.875 4.3125 C-13.97394531 3.77061035 -13.07289063 3.2287207 -12.14453125 2.67041016 C-11.28988281 2.17718262 -10.43523438 1.68395508 -9.5546875 1.17578125 C-8.79655762 0.73145752 -8.03842773 0.28713379 -7.25732422 -0.1706543 C-4.40559927 -1.21838409 -2.8724114 -0.89739044 0 0 Z " fill="#FD5554" transform="translate(851,552)"/>
<path d="M0 0 C0.74378906 0.37898438 1.48757813 0.75796875 2.25390625 1.1484375 C3.31738281 1.65117187 4.38085938 2.15390625 5.4765625 2.671875 C33.67370499 16.23350393 56.43836498 37.62580182 71.25390625 65.1484375 C71.6092041 65.80440918 71.96450195 66.46038086 72.33056641 67.13623047 C73.37760863 69.10535927 74.38537873 71.08934139 75.37890625 73.0859375 C75.95898438 74.24996094 76.5390625 75.41398437 77.13671875 76.61328125 C79.15345068 82.99489802 77.15520088 88.90505124 75.53979492 95.1965332 C68.26540308 123.56048072 63.92960782 160.15493737 72.32421875 188.80078125 C73.77000069 194.00681116 73.9667431 197.58055645 71.70703125 202.55078125 C70.99162456 203.74077793 70.2559875 204.91877315 69.50390625 206.0859375 C69.10123535 206.72853516 68.69856445 207.37113281 68.28369141 208.03320312 C52.32704739 233.03618116 32.52319812 251.44007104 6.25390625 265.1484375 C5.58157959 265.50180176 4.90925293 265.85516602 4.21655273 266.21923828 C-1.90021271 269.36658026 -8.13252087 271.27844255 -14.74609375 273.1484375 C-15.38095703 273.32938965 -16.01582031 273.5103418 -16.66992188 273.69677734 C-43.99248076 281.43636019 -73.45848336 280.23320136 -99.74609375 269.1484375 C-100.95394531 268.64570312 -102.16179687 268.14296875 -103.40625 267.625 C-128.58478286 256.72366167 -151.13485317 237.31194551 -165.74609375 214.1484375 C-166.43832031 213.0553125 -167.13054687 211.9621875 -167.84375 210.8359375 C-175.81079674 197.57287702 -181.70414951 183.06923165 -185.74609375 168.1484375 C-185.9471875 167.43945312 -186.14828125 166.73046875 -186.35546875 166 C-189.27845582 155.14951768 -190.08699246 144.41707008 -190.05859375 133.2109375 C-190.07470703 131.94314453 -190.09082031 130.67535156 -190.10742188 129.36914062 C-190.11124795 121.90446221 -189.37118254 115.18605127 -187.46459961 107.96313477 C-186.78826772 105.31365114 -186.35113368 102.73198092 -185.99609375 100.0234375 C-181.4386891 74.66368584 -166.33536917 50.48752218 -148.74609375 32.1484375 C-148.05128906 31.40207031 -147.35648438 30.65570313 -146.640625 29.88671875 C-128.27326836 10.71641756 -102.37284169 -4.18255993 -75.87109375 -7.4765625 C-74.01921724 -7.71633714 -72.16763797 -7.95842196 -70.31640625 -8.203125 C-69.50961426 -8.30447754 -68.70282227 -8.40583008 -67.87158203 -8.51025391 C-45.77607722 -12.05832601 -20.49103808 -10.0249697 0 0 Z " fill="#F7C193" transform="translate(352.74609375,278.8515625)"/>
<path d="M0 0 C0.95777344 0.47308594 1.91554688 0.94617188 2.90234375 1.43359375 C15.73566911 8.08581673 26.63965622 17.0250195 37 27 C38.15048828 28.03833984 38.15048828 28.03833984 39.32421875 29.09765625 C63.13910023 51.2878241 77.43119521 85.79486097 79 118 C80.18864587 154.63902938 80.18864587 154.63902938 73.82421875 169.8515625 C72.82307131 172.46118852 72.16172167 175.11281923 71.4375 177.8125 C66.06798965 195.55253611 54.97416447 212.0894195 43 226 C42.23945312 226.9075 41.47890625 227.815 40.6953125 228.75 C26.91455523 244.65434938 8.94001522 255.77220999 -10.15820312 264.18798828 C-11.67993878 264.85889135 -13.19280889 265.54986421 -14.703125 266.24609375 C-28.86622832 272.43642973 -44.40638048 274.17944459 -59.6875 274.1875 C-60.89083984 274.19974609 -62.09417969 274.21199219 -63.33398438 274.22460938 C-73.57156607 274.24120189 -83.21771381 273.08914301 -93 270 C-93.95390625 269.72285156 -94.9078125 269.44570313 -95.890625 269.16015625 C-130.77166985 258.86942145 -159.74896771 235.2297698 -177.90576172 203.82910156 C-178.96979505 201.99250532 -178.96979505 201.99250532 -180.20751953 200.31933594 C-183.72855326 195.15917431 -183.10984441 190.97084546 -182 185 C-181.8747998 184.32001953 -181.74959961 183.64003906 -181.62060547 182.93945312 C-181.36522419 181.60627629 -181.10628455 180.27377735 -180.84423828 178.94189453 C-176.45992291 155.31501373 -177.30556034 128.49149715 -182 105 C-182.2487085 103.7322876 -182.2487085 103.7322876 -182.50244141 102.43896484 C-184.1785067 93.25004566 -184.1785067 93.25004566 -187.12109375 84.44140625 C-188.91663477 79.45379231 -188.34019484 75.35676005 -186.3125 70.58203125 C-185.55869456 68.9840436 -184.7870406 67.39438314 -184 65.8125 C-183.59209229 64.97533447 -183.18418457 64.13816895 -182.76391602 63.27563477 C-174.09017759 45.8357232 -161.28537593 29.15825319 -146 17 C-145.25484131 16.40300293 -145.25484131 16.40300293 -144.49462891 15.79394531 C-129.26152899 3.72378274 -112.70319993 -4.76045108 -94 -10 C-93.29617188 -10.20882813 -92.59234375 -10.41765625 -91.8671875 -10.6328125 C-61.57744596 -19.46266336 -27.74475526 -13.85714999 0 0 Z " fill="#F7C193" transform="translate(1011,283)"/>
<path d="M0 0 C2.08268593 -0.08126087 4.16628658 -0.13930839 6.25 -0.1875 C7.99023438 -0.23970703 7.99023438 -0.23970703 9.765625 -0.29296875 C13 0 13 0 17 3 C11.39 2.67 5.78 2.34 0 2 C0 1.34 0 0.68 0 0 Z " fill="#3FA2F1" transform="translate(544,1007)"/>
<path d="M0 0 C0.99 0.33 1.98 0.66 3 1 C-3.435 5.95 -3.435 5.95 -10 11 C-10.66 10.34 -11.32 9.68 -12 9 C-10.07158542 7.46623771 -8.13378206 5.9482818 -6.1875 4.4375 C-5.64029297 3.99986328 -5.09308594 3.56222656 -4.52929688 3.11132812 C-3.0778042 1.99411861 -1.54189429 0.98871133 0 0 Z " fill="#FDCC3B" transform="translate(403,551)"/>
<path d="M0 0 C1.32 0.66 2.64 1.32 4 2 C-1.445 4.475 -1.445 4.475 -7 7 C-7.66 6.34 -8.32 5.68 -9 5 C-7.59546357 4.10565843 -6.17578131 3.23506808 -4.75 2.375 C-3.96109375 1.88773438 -3.1721875 1.40046875 -2.359375 0.8984375 C-1.19148437 0.45371094 -1.19148437 0.45371094 0 0 Z " fill="#FDCC3D" transform="translate(193,553)"/>
<path d="M0 0 C0.66 0 1.32 0 2 0 C2 2.64 2 5.28 2 8 C0.35 7.67 -1.3 7.34 -3 7 C-2.34 6.67 -1.68 6.34 -1 6 C-1.0309375 4.7934375 -1.0309375 4.7934375 -1.0625 3.5625 C-1 1 -1 1 0 0 Z " fill="#FDC839" transform="translate(291,854)"/>
<path d="M0 0 C0 0.66 0 1.32 0 2 C-1.75 3.2890625 -1.75 3.2890625 -4 4.625 C-4.7425 5.07101562 -5.485 5.51703125 -6.25 5.9765625 C-6.8275 6.31429687 -7.405 6.65203125 -8 7 C-8.99 6.34 -9.98 5.68 -11 5 C-9.54462432 4.16151196 -8.08559627 3.32936066 -6.625 2.5 C-5.81289063 2.0359375 -5.00078125 1.571875 -4.1640625 1.09375 C-2 0 -2 0 0 0 Z " fill="#FC6664" transform="translate(844,553)"/>
<path d="M0 0 C1.9453125 -0.29296875 1.9453125 -0.29296875 4.125 -0.1875 C5.40375 -0.125625 6.6825 -0.06375 8 0 C8 0.66 8 1.32 8 2 C4.7 2.33 1.4 2.66 -2 3 C-1.34 2.01 -0.68 1.02 0 0 Z " fill="#3C9DED" transform="translate(758,999)"/>
<path d="M0 0 C0 3 0 3 -2.5 5.6875 C-3.325 6.450625 -4.15 7.21375 -5 8 C-5.99 7.67 -6.98 7.34 -8 7 C-5.36 4.69 -2.72 2.38 0 0 Z " fill="#FDCC39" transform="translate(145,586)"/>
<path d="M0 0 C0.88492145 2.47778006 1.11637742 3.66056586 0.25 6.1875 C-1 8 -1 8 -4 9 C-2.94124926 5.59687262 -1.99097846 2.98646769 0 0 Z " fill="#FDD150" transform="translate(90,654)"/>
</svg>
